<svg width="30" height="12" viewBox="0 0 30 12" fill="none" xmlns="http://www.w3.org/2000/svg">
<path d="M30 2.00785C30 1.37662 29.4864 0.863039 28.8552 0.863039H6.76391C6.50865 0.574604 6.13726 0.393372 5.73129 0.393372H3.72798C3.48481 0.393372 3.28767 0.590514 3.28767 0.833685V2.27204H0.90998C0.4082 2.27204 0 2.68024 0 3.18202V4.12136C0 4.62314 0.4082 5.03134 0.90998 5.03134H2.34834V6.00003C2.34834 6.2432 2.54548 6.44034 2.78865 6.44034H4.22701V6.96871H0.90998C0.4082 6.96871 0 7.37691 0 7.8787V8.43296C0 8.86523 0.307632 9.2405 0.731507 9.32527L2.35174 9.64934C2.34969 9.68515 2.34834 9.72108 2.34834 9.75737C2.34834 10.7771 3.17795 11.6067 4.19765 11.6067C5.06566 11.6067 5.79546 11.0054 5.9936 10.1977H6.62877C6.82685 11.0054 7.55671 11.6067 8.42472 11.6067C9.29548 11.6067 10.0271 11.0016 10.2224 10.1899C10.2487 10.1948 10.2757 10.1977 10.3034 10.1977H19.7795C19.9775 11.0054 20.7074 11.6067 21.5754 11.6067C22.4434 11.6067 23.1732 11.0054 23.3714 10.1977H24.5894C24.9165 10.1977 25.2198 10.0209 25.3811 9.73635L29.1318 3.1175C29.6295 2.99333 30 2.54363 30 2.00785ZM29.1194 2.00785C29.1194 2.15351 29.0008 2.27204 28.8552 2.27204H7.19624L7.12074 1.74367H28.8552C29.0008 1.74367 29.1194 1.8622 29.1194 2.00785ZM7.42661 3.68104H7.39755L7.32205 3.15267H11.2196L7.92564 4.4196V4.18006C7.92564 3.9049 7.70178 3.68104 7.42661 3.68104ZM4.1683 1.274H5.73129C5.97804 1.274 6.19039 1.45823 6.22532 1.70245L6.50795 3.68104H4.1683V1.274ZM0.880626 4.12136V3.18202C0.880626 3.16588 0.893777 3.15267 0.90998 3.15267H3.28767V3.68104H2.84736C2.58211 3.68104 2.36513 3.88922 2.3498 4.15071H0.90998C0.893777 4.15071 0.880626 4.1375 0.880626 4.12136ZM3.22896 4.56167H7.01384C7.01425 4.56167 7.01466 4.56173 7.01507 4.56173C7.01536 4.56173 7.0156 4.56167 7.01589 4.56167H7.04501V5.55971H3.22896V4.56167ZM5.10763 6.44034H6.10568V6.96871H5.10763V6.44034ZM4.19765 10.7261C3.66352 10.7261 3.22896 10.2915 3.22896 9.75737C3.22896 9.22324 3.66352 8.78868 4.19765 8.78868C4.73178 8.78868 5.16634 9.22324 5.16634 9.75737C5.16634 10.2915 4.73178 10.7261 4.19765 10.7261ZM8.42466 10.7261C7.89053 10.7261 7.45597 10.2915 7.45597 9.75737C7.45597 9.22324 7.89053 8.78868 8.42466 8.78868C8.95879 8.78868 9.39335 9.22324 9.39335 9.75737C9.39335 10.2915 8.95879 10.7261 8.42466 10.7261ZM10.2224 9.3248C10.027 8.51316 9.29542 7.90805 8.42466 7.90805C7.55665 7.90805 6.82685 8.50928 6.62871 9.31705H5.99354C5.79546 8.50928 5.0656 7.90805 4.19759 7.90805C3.52656 7.90805 2.93789 8.2674 2.61376 8.80371L0.904168 8.46179C0.890489 8.45909 0.880567 8.44693 0.880567 8.43302V7.8787C0.880567 7.86255 0.893718 7.84934 0.909922 7.84934H14.9999C15.2751 7.84934 15.499 8.0732 15.499 8.34836V9.31705H10.3033C10.2756 9.31705 10.2487 9.31993 10.2224 9.3248ZM16.3789 8.31901H16.908V9.31705H16.3796V8.34836C16.3796 8.33856 16.3791 8.32881 16.3789 8.31901ZM23.9545 9.31705H23.3712C23.1732 8.50928 22.4433 7.90805 21.5753 7.90805C20.7073 7.90805 19.9775 8.50928 19.7793 9.31705H17.7887V6.91001H21.1043C21.1048 6.91001 21.1053 6.91012 21.1058 6.91012C21.1066 6.91012 21.1074 6.91001 21.1083 6.91001H23.454C23.7292 6.91001 23.953 7.13386 23.953 7.40903V9.2877C23.953 9.29762 23.9539 9.30731 23.9545 9.31705ZM19.8682 4.56167L20.4553 6.02938H17.7887V5.06069C17.7887 4.78552 18.0125 4.56167 18.2877 4.56167H19.8682ZM21.5753 10.7261C21.0412 10.7261 20.6067 10.2915 20.6067 9.75737C20.6067 9.22324 21.0412 8.78868 21.5753 8.78868C22.1095 8.78868 22.544 9.22324 22.544 9.75737C22.544 10.2915 22.1095 10.7261 21.5753 10.7261ZM24.8337 8.91601V7.40903C24.8337 6.64828 24.2148 6.02938 23.454 6.02938H21.4038L20.8034 4.52856C20.9635 4.46263 21.0763 4.30523 21.0763 4.12136C21.0763 3.87819 20.8792 3.68104 20.636 3.68104H20.1753C20.1747 3.68104 20.1741 3.68104 20.1736 3.68104H18.2877C17.5269 3.68104 16.908 4.29995 16.908 5.06069V7.43838H16.0357C15.7826 7.15077 15.4123 6.96871 15 6.96871H6.9863V6.44034H7.42661C7.70178 6.44034 7.92564 6.21648 7.92564 5.94132V5.3631L13.6727 3.15267H28.0996L24.8337 8.91601Z" fill="#415560"/>
<path d="M4.19813 9.31702C4.08247 9.31702 3.96858 9.36398 3.88697 9.44618C3.80478 9.52778 3.75781 9.64167 3.75781 9.75733C3.75781 9.87298 3.80478 9.98688 3.88697 10.0685C3.96858 10.1507 4.08247 10.1976 4.19813 10.1976C4.31378 10.1976 4.42768 10.1507 4.50928 10.0685C4.59147 9.98688 4.63844 9.87298 4.63844 9.75733C4.63844 9.64167 4.59147 9.52778 4.50928 9.44618C4.42768 9.36398 4.31378 9.31702 4.19813 9.31702Z" fill="#415560"/>
<path d="M8.42469 9.31702C8.30903 9.31702 8.19514 9.36398 8.11353 9.44618C8.03134 9.52778 7.98438 9.64167 7.98438 9.75733C7.98438 9.87298 8.03134 9.98688 8.11353 10.0685C8.19514 10.1507 8.30903 10.1976 8.42469 10.1976C8.54093 10.1976 8.65424 10.1507 8.73584 10.0685C8.81804 9.98688 8.865 9.87298 8.865 9.75733C8.865 9.64167 8.81804 9.52778 8.73584 9.44618C8.65424 9.36398 8.54093 9.31702 8.42469 9.31702Z" fill="#415560"/>
<path d="M21.5751 9.31702C21.4594 9.31702 21.3455 9.36398 21.2639 9.44618C21.1817 9.52778 21.1348 9.64167 21.1348 9.75733C21.1348 9.87298 21.1817 9.98688 21.2639 10.0685C21.3455 10.1507 21.4594 10.1976 21.5751 10.1976C21.6907 10.1976 21.8046 10.1507 21.8862 10.0685C21.9684 9.98688 22.0154 9.87298 22.0154 9.75733C22.0154 9.64167 21.9684 9.52778 21.8862 9.44618C21.8046 9.36398 21.6907 9.31702 21.5751 9.31702Z" fill="#415560"/>
</svg>
