<svg width="28" height="16" viewBox="0 0 28 16" fill="none" xmlns="http://www.w3.org/2000/svg">
<path d="M8.1439 10.6705C7.92412 10.7271 7.79179 10.9511 7.84834 11.1709C7.87639 11.2799 7.89058 11.3929 7.89058 11.5068C7.89058 12.2471 7.28834 12.8493 6.54812 12.8493C5.8079 12.8493 5.20571 12.2471 5.20571 11.5068C5.20571 10.7666 5.80795 10.1644 6.54817 10.1644C6.66215 10.1644 6.77524 10.1786 6.88423 10.2067C7.10384 10.2632 7.32806 10.131 7.38467 9.91112C7.44127 9.69134 7.30894 9.46728 7.08916 9.41068C6.91321 9.36537 6.73119 9.34241 6.54812 9.34241C5.35475 9.34246 4.38379 10.3134 4.38379 11.5068C4.38379 12.7003 5.35475 13.6712 6.54817 13.6712C7.7416 13.6712 8.71256 12.7003 8.71256 11.5068C8.71256 11.3238 8.6896 11.1419 8.64434 10.966C8.58773 10.7462 8.36362 10.6139 8.1439 10.6705Z" fill="#415560"/>
<path d="M21.7328 10.6705C21.513 10.7271 21.3807 10.9511 21.4373 11.1709C21.4653 11.2799 21.4795 11.3929 21.4795 11.5068C21.4795 12.2471 20.8773 12.8493 20.137 12.8493C19.3968 12.8493 18.7946 12.2471 18.7946 11.5068C18.7946 10.7666 19.3969 10.1644 20.1371 10.1644C20.2511 10.1644 20.3642 10.1786 20.4732 10.2067C20.6929 10.2632 20.917 10.131 20.9736 9.91112C21.0302 9.69134 20.8979 9.46728 20.6781 9.41068C20.5021 9.36537 20.3201 9.34241 20.137 9.34241C18.9436 9.34241 17.9727 10.3134 17.9727 11.5068C17.9727 12.7002 18.9436 13.6712 20.137 13.6712C21.3305 13.6712 22.3014 12.7002 22.3014 11.5068C22.3014 11.3238 22.2785 11.1418 22.2332 10.9659C22.1767 10.7462 21.9526 10.6139 21.7328 10.6705Z" fill="#415560"/>
<path d="M27.589 0.136963H21.4522C21.4521 0.136963 21.4521 0.136963 21.4519 0.136963H6.8359C6.25776 0.136963 5.7142 0.362059 5.30543 0.770881L0.120391 5.95598C0.00285683 6.07351 -0.0323212 6.25028 0.0312952 6.40381C0.0949116 6.5574 0.24472 6.65751 0.410966 6.65751H3.50686V6.68491C3.50686 7.1854 3.79403 7.61976 4.21206 7.83275C2.99875 8.60688 2.19179 9.96398 2.19179 11.5068C2.19179 13.9088 4.14598 15.863 6.54795 15.863C8.81129 15.863 10.6763 14.1277 10.8842 11.9178H15.8008C16.0086 14.1277 17.8736 15.863 20.137 15.863C21.926 15.863 23.466 14.7786 24.1358 13.2329H26.7123C27.1807 13.2329 27.5616 12.8519 27.5616 12.3835V6.68491C27.5616 6.21658 27.1807 5.83559 26.7123 5.83559H25.3699V4.05477C25.3699 3.34474 24.7922 2.7671 24.0822 2.7671H20.5753C20.3484 2.7671 20.1644 2.9511 20.1644 3.17806V5.83559H16.7455L21.6222 0.958881H27.589C27.816 0.958881 28 0.774881 28 0.547922C28 0.320963 27.816 0.136963 27.589 0.136963ZM6.54795 15.0411C4.59918 15.0411 3.01371 13.4557 3.01371 11.5068C3.01371 9.55801 4.59918 7.97258 6.54795 7.97258C8.49672 7.97258 10.0822 9.55806 10.0822 11.5068C10.0822 13.4556 8.49677 15.0411 6.54795 15.0411ZM20.137 15.0411C18.1882 15.0411 16.6027 13.4556 16.6027 11.5068C16.6027 9.55806 18.1882 7.97258 20.137 7.97258C22.0858 7.97258 23.6712 9.55806 23.6712 11.5068C23.6712 13.4556 22.0858 15.0411 20.137 15.0411ZM26.7397 6.68491V12.3835C26.7397 12.3986 26.7274 12.4109 26.7123 12.4109H24.3982C24.4601 12.1191 24.4931 11.8168 24.4931 11.5068C24.4931 9.10486 22.539 7.15066 20.137 7.15066C17.8736 7.15066 16.0086 8.88595 15.8008 11.0959H10.8842C10.6763 8.88595 8.81129 7.15066 6.54795 7.15066H4.79453C4.5377 7.15066 4.32877 6.94173 4.32877 6.68491V6.65751H26.7123C26.7274 6.65751 26.7397 6.66984 26.7397 6.68491ZM20.9863 3.58902H24.0822C24.339 3.58902 24.5479 3.79795 24.5479 4.05477V4.08217H21.8904C21.6635 4.08217 21.4795 4.26617 21.4795 4.49313C21.4795 4.72009 21.6635 4.90409 21.8904 4.90409H24.5479V5.83559H20.9863V3.58902ZM15.5832 5.83559H3.91781H1.40313L5.88664 1.35209C6.14017 1.09855 6.47732 0.958881 6.8359 0.958881H20.4599L15.5832 5.83559Z" fill="#415560"/>
<path d="M14.5862 5.22204C14.6664 5.30226 14.7716 5.34242 14.8768 5.34242C14.9819 5.34242 15.0871 5.30231 15.1673 5.22204L18.2358 2.15355C18.3963 1.99305 18.3963 1.73289 18.2358 1.5724C18.0753 1.4119 17.8151 1.4119 17.6547 1.5724L14.5862 4.64089C14.4257 4.80138 14.4257 5.06155 14.5862 5.22204Z" fill="#415560"/>
<path d="M12.3938 5.22204C12.474 5.30226 12.5792 5.34242 12.6844 5.34242C12.7895 5.34242 12.8947 5.30231 12.975 5.22204L16.0435 2.15355C16.2039 1.99305 16.2039 1.73289 16.0435 1.5724C15.883 1.4119 15.6227 1.4119 15.4623 1.5724L12.3938 4.64089C12.2333 4.80138 12.2333 5.06155 12.3938 5.22204Z" fill="#415560"/>
<path d="M10.2024 5.22204C10.2826 5.30226 10.3878 5.34242 10.493 5.34242C10.5981 5.34242 10.7033 5.30231 10.7836 5.22204L13.852 2.15355C14.0125 1.99305 14.0125 1.73289 13.852 1.5724C13.6916 1.4119 13.4313 1.4119 13.2709 1.5724L10.2024 4.64089C10.0419 4.80138 10.0419 5.06155 10.2024 5.22204Z" fill="#415560"/>
<path d="M8.01099 5.22204C8.09121 5.30226 8.19642 5.34242 8.30157 5.34242C8.40672 5.34242 8.51193 5.30231 8.59214 5.22204L11.6606 2.15355C11.8211 1.99305 11.8211 1.73289 11.6606 1.5724C11.5001 1.4119 11.2399 1.4119 11.0795 1.5724L8.01099 4.64089C7.8505 4.80138 7.8505 5.06155 8.01099 5.22204Z" fill="#415560"/>
<path d="M5.81861 5.22204C5.89883 5.30226 6.00404 5.34242 6.10919 5.34242C6.21434 5.34242 6.31954 5.30231 6.39976 5.22204L9.46825 2.15355C9.62875 1.99305 9.62875 1.73289 9.46825 1.5724C9.30776 1.4119 9.04754 1.4119 8.88711 1.5724L5.81861 4.64089C5.65812 4.80138 5.65812 5.06155 5.81861 5.22204Z" fill="#415560"/>
<path d="M3.62721 4.64089C3.46671 4.80138 3.46671 5.06155 3.62721 5.22204C3.70742 5.30231 3.81263 5.34242 3.91778 5.34242C4.02293 5.34242 4.12814 5.30231 4.20836 5.22204L7.27685 2.15355C7.43734 1.99305 7.43734 1.73289 7.27685 1.5724C7.11636 1.4119 6.85614 1.4119 6.6957 1.5724L3.62721 4.64089Z" fill="#415560"/>
<path d="M15.3151 8.90411H11.3699C11.143 8.90411 10.959 9.08811 10.959 9.31507C10.959 9.54203 11.143 9.72603 11.3699 9.72603H15.3151C15.5421 9.72603 15.7261 9.54203 15.7261 9.31507C15.7261 9.08811 15.5421 8.90411 15.3151 8.90411Z" fill="#415560"/>
</svg>
