<svg width="28" height="22" viewBox="0 0 28 22" fill="none" xmlns="http://www.w3.org/2000/svg">
<path d="M3.91829 18.2603C3.69133 18.2603 3.50733 18.4443 3.50733 18.6712C3.50733 18.928 3.2984 19.137 3.04158 19.137C2.78476 19.137 2.57582 18.928 2.57582 18.6712C2.57582 18.4144 2.78476 18.2055 3.04158 18.2055C3.26854 18.2055 3.45254 18.0215 3.45254 17.7945C3.45254 17.5675 3.26854 17.3835 3.04158 17.3835C2.33155 17.3835 1.75391 17.9612 1.75391 18.6712C1.75391 19.3812 2.33155 19.9589 3.04158 19.9589C3.75161 19.9589 4.32925 19.3812 4.32925 18.6712C4.32925 18.4443 4.14525 18.2603 3.91829 18.2603Z" fill="#415560"/>
<path d="M20.5755 18.2603C20.3486 18.2603 20.1646 18.4443 20.1646 18.6712C20.1646 18.928 19.9556 19.137 19.6988 19.137C19.442 19.137 19.2331 18.928 19.2331 18.6712C19.2331 18.4144 19.442 18.2055 19.6988 18.2055C19.9258 18.2055 20.1098 18.0215 20.1098 17.7945C20.1098 17.5675 19.9258 17.3835 19.6988 17.3835C18.9888 17.3835 18.4111 17.9612 18.4111 18.6712C18.4111 19.3812 18.9888 19.9589 19.6988 19.9589C20.4088 19.9589 20.9865 19.3812 20.9865 18.6712C20.9865 18.4443 20.8025 18.2603 20.5755 18.2603Z" fill="#415560"/>
<path d="M8.30158 18.2603C8.19364 18.2603 8.08734 18.3041 8.01117 18.3808C7.93446 18.457 7.89062 18.5633 7.89062 18.6712C7.89062 18.7792 7.93446 18.8855 8.01117 18.9616C8.08734 19.0383 8.19364 19.0822 8.30158 19.0822C8.40953 19.0822 8.51583 19.0383 8.592 18.9616C8.66871 18.8855 8.71254 18.7792 8.71254 18.6712C8.71254 18.5633 8.66871 18.457 8.592 18.3808C8.51583 18.3041 8.40953 18.2603 8.30158 18.2603Z" fill="#415560"/>
<path d="M7.42463 4.67123C7.31669 4.67123 7.21038 4.71507 7.13422 4.79178C7.05751 4.86795 7.01367 4.97425 7.01367 5.08219C7.01367 5.19014 7.05751 5.29644 7.13422 5.37261C7.21038 5.44932 7.31669 5.49315 7.42463 5.49315C7.53258 5.49315 7.63888 5.44932 7.71504 5.37261C7.79175 5.29644 7.83559 5.19014 7.83559 5.08219C7.83559 4.97425 7.79175 4.86795 7.71504 4.79178C7.63888 4.71507 7.53312 4.67123 7.42463 4.67123Z" fill="#415560"/>
<path d="M14.4383 10.8082C14.3304 10.8082 14.2241 10.852 14.1479 10.9287C14.0712 11.0049 14.0273 11.1112 14.0273 11.2192C14.0273 11.3276 14.0712 11.4334 14.1479 11.5096C14.2241 11.5863 14.3304 11.6301 14.4383 11.6301C14.5462 11.6301 14.6525 11.5863 14.7287 11.5096C14.8054 11.4334 14.8493 11.3276 14.8493 11.2192C14.8493 11.1112 14.8054 11.0049 14.7287 10.9287C14.6525 10.852 14.5462 10.8082 14.4383 10.8082Z" fill="#415560"/>
<path d="M25.9838 3.61916C26.06 3.69587 26.1663 3.7397 26.2742 3.7397C26.3822 3.7397 26.4885 3.69587 26.5647 3.61916C26.6414 3.54299 26.6852 3.43669 26.6852 3.32874C26.6852 3.2208 26.6414 3.1145 26.5647 3.03833C26.4885 2.96162 26.3822 2.91779 26.2742 2.91779C26.1663 2.91779 26.06 2.96162 25.9838 3.03833C25.9071 3.1145 25.8633 3.2208 25.8633 3.32874C25.8633 3.43669 25.9071 3.54299 25.9838 3.61916Z" fill="#415560"/>
<path d="M26.6849 6.47407V5.00492C27.4388 4.81999 28 4.13884 28 3.3287C28 2.37697 27.2257 1.60267 26.274 1.60267H23.0715C22.9265 1.34158 22.6481 1.16432 22.3288 1.16432H2.57534V1.13692C2.57534 0.668645 2.19436 0.287659 1.72603 0.287659H0.849315C0.380986 0.287659 0 0.668645 0 1.13697V7.27396C0 7.74229 0.380986 8.12328 0.849315 8.12328H1.72603C2.19436 8.12328 2.57534 7.74229 2.57534 7.27396V5.49314H5.74767C5.81775 5.78169 5.96181 6.0481 6.17255 6.27018C6.49704 6.6121 6.95342 6.80821 7.42471 6.80821H8.97266L11.3973 10.0411V12.5342C11.3973 12.7612 11.5813 12.9452 11.8082 12.9452H12.7137C12.7131 12.9543 12.7123 12.9633 12.7123 12.9726V14.726C12.7123 14.9828 12.5034 15.1918 12.2466 15.1918H10.4658V14.2934C10.4658 14.2922 10.4658 14.2909 10.4658 14.2897V14.2877C10.4658 14.285 10.4654 14.2825 10.4654 14.2798C10.4652 14.2692 10.4648 14.2586 10.4638 14.2479C10.4631 14.2411 10.4619 14.2345 10.4609 14.2277C10.4599 14.2212 10.4592 14.2147 10.458 14.2082C10.4559 14.1975 10.4532 14.1871 10.4502 14.1767C10.4496 14.1743 10.4492 14.1719 10.4485 14.1695L10.4479 14.1677C10.4476 14.1665 10.4472 14.1652 10.4468 14.164L9.32088 10.4108C9.15616 9.86191 8.66049 9.49314 8.08745 9.49314H2.16438C1.45436 9.49314 0.876712 10.0708 0.876712 10.7808V13.9443C0.367671 14.1163 0 14.598 0 15.1644V18.6712C0 20.3481 1.36422 21.7123 3.0411 21.7123C4.57852 21.7123 5.85233 20.5653 6.05364 19.0822H6.57534V19.1096C6.57534 19.8196 7.15299 20.3973 7.86301 20.3973H10.4932C11.2032 20.3973 11.7808 19.8196 11.7808 19.1096V19.0822H16.6861C16.8875 20.5653 18.1612 21.7123 19.6986 21.7123C21.2375 21.7123 22.5122 20.5631 22.7117 19.078C22.7299 19.0805 22.7483 19.0822 22.7671 19.0822H24.5205C24.9889 19.0822 25.3699 18.7012 25.3699 18.2329V12.5342C25.3699 12.5309 25.3694 12.5277 25.3694 12.5244C25.3692 12.5158 25.3688 12.5072 25.3681 12.4986C25.3676 12.4926 25.3668 12.4868 25.366 12.481C25.3651 12.4737 25.3641 12.4666 25.3627 12.4593C25.3614 12.452 25.3597 12.4448 25.358 12.4376C25.3566 12.432 25.3553 12.4265 25.3536 12.4209C25.3512 12.4124 25.3484 12.4041 25.3454 12.3959C25.3443 12.3929 25.3436 12.3898 25.3425 12.3867L23.583 7.8121C23.2638 6.98223 22.452 6.4247 21.5629 6.4247H18.3836C17.6735 6.4247 17.0959 7.00235 17.0959 7.71237V10.8082H16.1146C15.9941 10.3169 15.6627 9.90777 15.2222 9.68218C15.2093 9.66202 15.1947 9.64262 15.1779 9.62443L11.3416 5.49314H22.3288C22.6481 5.49314 22.9265 5.31588 23.0715 5.05478H25.863V6.8356C25.863 7.06256 26.047 7.24656 26.274 7.24656C26.7725 7.24656 27.1781 7.65215 27.1781 8.15067C27.1781 8.64919 26.7725 9.05478 26.274 9.05478C25.7755 9.05478 25.3699 8.64919 25.3699 8.15067C25.3699 7.92371 25.1859 7.73971 24.9589 7.73971C24.7319 7.73971 24.5479 7.92371 24.5479 8.15067C24.5479 9.1024 25.3222 9.8767 26.274 9.8767C27.2257 9.8767 28 9.1024 28 8.15067C28 7.34048 27.4389 6.65889 26.6849 6.47407ZM27.1781 3.32875C27.1781 3.82728 26.7725 4.23286 26.274 4.23286H23.1781V2.42465H26.274C26.7725 2.42465 27.1781 2.83023 27.1781 3.32875ZM1.75342 7.27396C1.75342 7.28804 1.74011 7.30136 1.72603 7.30136H0.849315C0.835233 7.30136 0.821918 7.28804 0.821918 7.27396V1.13697C0.821918 1.12289 0.835233 1.10958 0.849315 1.10958H1.72603C1.74011 1.10958 1.75342 1.12289 1.75342 1.13697V1.57533V5.08218V7.27396ZM2.57534 1.98629H22.3288C22.3439 1.98629 22.3562 1.99862 22.3562 2.01369V2.9178H11.9146C11.4535 2.9178 11.0201 3.0973 10.6941 3.42338L10.0333 4.08421L9.86948 3.90771C9.544 3.55725 9.08296 3.35621 8.60466 3.35621H7.49912C6.65353 3.35621 5.94044 3.91281 5.74932 4.67128H2.57534V1.98629ZM9.17808 5.98629H7.42466C7.17419 5.98629 6.94121 5.88618 6.76871 5.70437C6.59633 5.52278 6.50866 5.28426 6.52186 5.03292C6.54658 4.56152 6.98493 4.17801 7.49907 4.17801H8.6046C8.85518 4.17801 9.09666 4.28333 9.26712 4.46689L13.9343 9.49314H12.0137L9.50685 6.15067C9.4292 6.04717 9.30745 5.98629 9.17808 5.98629ZM0.821918 15.1644C0.821918 14.9076 1.03085 14.6986 1.28767 14.6986H2.16438C2.39134 14.6986 2.57534 14.5146 2.57534 14.2877C2.57534 14.0607 2.39134 13.8767 2.16438 13.8767H1.69863V10.7808C1.69863 10.524 1.90756 10.3151 2.16438 10.3151H8.08745C8.29474 10.3151 8.47403 10.4485 8.53359 10.647L9.50247 13.8767H3.91797C3.69101 13.8767 3.50701 14.0607 3.50701 14.2877C3.50701 14.5146 3.69101 14.6986 3.91797 14.6986H9.64384V16.9452H7.86301H5.67123C5.63085 16.9452 5.59189 16.9513 5.55501 16.9621C5.00712 16.1587 4.08477 15.6301 3.0411 15.6301C2.16636 15.6301 1.37726 16.0019 0.821918 16.5951V15.1644ZM3.0411 20.8904C1.81742 20.8904 0.821918 19.8949 0.821918 18.6712C0.821918 17.4476 1.81742 16.452 3.0411 16.452C4.26477 16.452 5.26027 17.4476 5.26027 18.6712C5.26027 19.8949 4.26477 20.8904 3.0411 20.8904ZM6.05364 18.2603C6.03068 18.0912 5.99463 17.9262 5.94499 17.7671H6.6629C6.60663 17.9117 6.5754 18.0686 6.5754 18.2329V18.2603H6.05364ZM10.9589 19.1096C10.9589 19.3664 10.75 19.5753 10.4932 19.5753H7.86301C7.60619 19.5753 7.39726 19.3664 7.39726 19.1096V18.2329C7.39726 17.976 7.60619 17.7671 7.86301 17.7671H10.4932C10.75 17.7671 10.9589 17.976 10.9589 18.2329V19.1096ZM11.6933 17.7671H16.7948C16.7452 17.9262 16.7091 18.0912 16.6861 18.2603H11.7808V18.2329C11.7808 18.0686 11.7496 17.9117 11.6933 17.7671ZM19.6986 20.8904C18.475 20.8904 17.4795 19.8949 17.4795 18.6712C17.4795 17.4476 18.475 16.452 19.6986 16.452C20.9223 16.452 21.9178 17.4476 21.9178 18.6712C21.9178 19.8949 20.9223 20.8904 19.6986 20.8904ZM24.1919 11.6849H20.5753C20.0768 11.6849 19.6712 11.2793 19.6712 10.7808V8.99999H23.1593L24.1919 11.6849ZM24.5479 16.0685H24.0822C24.0681 16.0685 24.0548 16.0552 24.0548 16.0411V15.6027C24.0548 15.5886 24.0681 15.5753 24.0822 15.5753H24.5479V16.0685ZM17.9178 7.71232C17.9178 7.4555 18.1267 7.24656 18.3836 7.24656H21.5628C22.1143 7.24656 22.6179 7.59243 22.8158 8.10711L22.8431 8.17807H19.2603C19.0333 8.17807 18.8493 8.36207 18.8493 8.58903V10.7808C18.8493 11.7325 19.6236 12.5068 20.5753 12.5068H24.5081L24.5479 12.6106V14.7534H24.0822C23.6139 14.7534 23.2329 15.1344 23.2329 15.6027V16.0411C23.2329 16.5094 23.6139 16.8904 24.0822 16.8904H24.5479V18.2329C24.5479 18.2479 24.5357 18.2603 24.5205 18.2603H22.7671C22.7483 18.2603 22.7299 18.262 22.7117 18.2644C22.5122 16.7793 21.2375 15.6301 19.6986 15.6301C19.0339 15.6301 18.4188 15.8451 17.9178 16.2083V7.71232ZM17.0974 16.9466C17.0878 16.946 17.0782 16.9452 17.0685 16.9452H10.4932H10.4658V16.0137H12.2466C12.9566 16.0137 13.5342 15.436 13.5342 14.726V12.9726C13.5342 12.9633 13.5335 12.9543 13.5329 12.9452H14.4384C15.2485 12.9452 15.9296 12.384 16.1146 11.6301H17.0959V16.9178C17.0959 16.9276 17.0967 16.9371 17.0974 16.9466ZM14.4384 12.1233H12.2192V10.3151H14.4384C14.9369 10.3151 15.3425 10.7206 15.3425 11.2192C15.3425 11.7177 14.9369 12.1233 14.4384 12.1233ZM22.3288 4.67122H10.6086L11.2753 4.00454C11.4461 3.83374 11.6731 3.73971 11.9146 3.73971H22.3562V4.64382C22.3562 4.65889 22.3439 4.67122 22.3288 4.67122Z" fill="#415560"/>
<path d="M3.04084 11.6301H4.79427C5.02123 11.6301 5.20523 11.4461 5.20523 11.2192C5.20523 10.9922 5.02123 10.8082 4.79427 10.8082H3.04084C2.81388 10.8082 2.62988 10.9922 2.62988 11.2192C2.62988 11.4461 2.81388 11.6301 3.04084 11.6301Z" fill="#415560"/>
<path d="M3.04084 12.9452H4.79427C5.02123 12.9452 5.20523 12.7612 5.20523 12.5342C5.20523 12.3073 5.02123 12.1233 4.79427 12.1233H3.04084C2.81388 12.1233 2.62988 12.3073 2.62988 12.5342C2.62988 12.7612 2.81388 12.9452 3.04084 12.9452Z" fill="#415560"/>
</svg>
