<svg width="28" height="14" viewBox="0 0 28 14" fill="none" xmlns="http://www.w3.org/2000/svg">
<path d="M6.54756 9.65759C6.07923 9.65759 5.69824 10.0386 5.69824 10.5069C5.69824 10.9752 6.07923 11.3562 6.54756 11.3562C7.01589 11.3562 7.39687 10.9752 7.39687 10.5069C7.39687 10.0386 7.01589 9.65759 6.54756 9.65759ZM6.54756 10.5343C6.53243 10.5343 6.52016 10.522 6.52016 10.5069C6.52016 10.4918 6.53243 10.4795 6.54756 10.4795C6.56268 10.4795 6.57495 10.4918 6.57495 10.5069C6.57495 10.522 6.56268 10.5343 6.54756 10.5343Z" fill="#415560"/>
<path d="M10.9313 9.65759C10.463 9.65759 10.082 10.0386 10.082 10.5069C10.082 10.9752 10.463 11.3562 10.9313 11.3562C11.3997 11.3562 11.7807 10.9752 11.7807 10.5069C11.7807 10.0386 11.3997 9.65759 10.9313 9.65759ZM10.9313 10.5343C10.9162 10.5343 10.9039 10.522 10.9039 10.5069C10.9039 10.4918 10.9162 10.4795 10.9313 10.4795C10.9465 10.4795 10.9587 10.4918 10.9587 10.5069C10.9587 10.522 10.9465 10.5343 10.9313 10.5343Z" fill="#415560"/>
<path d="M24.0817 9.65759C23.6134 9.65759 23.2324 10.0386 23.2324 10.5069C23.2324 10.9752 23.6134 11.3562 24.0817 11.3562C24.5501 11.3562 24.931 10.9752 24.931 10.5069C24.931 10.0386 24.5501 9.65759 24.0817 9.65759ZM24.0817 10.5343C24.0666 10.5343 24.0543 10.522 24.0543 10.5069C24.0543 10.4918 24.0666 10.4795 24.0817 10.4795C24.0969 10.4795 24.1091 10.4918 24.1091 10.5069C24.1091 10.522 24.0969 10.5343 24.0817 10.5343Z" fill="#415560"/>
<path d="M27.8796 11.9698L27.5616 11.6518V10.5069C27.5616 10.418 27.5328 10.3315 27.4795 10.2603L24.8493 6.75348C24.7132 6.57195 24.4556 6.53513 24.274 6.67129C24.0924 6.80746 24.0556 7.0651 24.1918 7.24663L24.7505 7.99151C24.5545 7.9394 24.3495 7.91009 24.1385 7.90559L17.7873 6.31781C17.6855 6.29239 17.5827 6.27354 17.4795 6.26061V5.68504C17.4795 5.45809 17.2955 5.27409 17.0685 5.27409C16.8415 5.27409 16.6575 5.45809 16.6575 5.68504V6.28866C16.5482 6.31009 16.4397 6.33814 16.333 6.37376L12.6575 7.59885V7.22351C12.9456 7.04844 13.1615 6.76247 13.2422 6.41293L14.3269 1.71244H14.8767C15.1037 1.71244 15.2877 1.52844 15.2877 1.30148C15.2877 1.07452 15.1037 0.890524 14.8767 0.890524H14.0083C14.0025 0.890414 13.9968 0.890414 13.991 0.890524H9.61644C8.90641 0.890524 8.32877 1.46817 8.32877 2.1782V3.52066H6.9863C6.51797 3.52066 6.13699 3.90165 6.13699 4.36998V5.27409H5.64384V2.54132C5.64384 2.19732 5.50986 1.87398 5.26669 1.6308L4.64679 1.01085C4.4863 0.85036 4.22608 0.85036 4.06564 1.01085C3.90515 1.17135 3.90515 1.43156 4.06564 1.59206L4.68559 2.212C4.77353 2.29995 4.82197 2.41693 4.82197 2.54132V5.27409H1.28767C0.819342 5.27409 0.438356 5.65507 0.438356 6.1234V7.90422H0.410959C0.184 7.90422 0 8.08822 0 8.31518V8.92696C0 9.53518 0.41463 10.0521 1.00833 10.1839L3.96745 10.8415C4.13227 12.1191 5.22625 13.1097 6.54795 13.1097C7.46751 13.1097 8.2766 12.6299 8.73973 11.9079C9.20285 12.6299 10.0119 13.1097 10.9315 13.1097C12.3666 13.1097 13.5342 11.9421 13.5342 10.507C13.5342 10.3147 13.5127 10.1274 13.4729 9.94691L16.5929 8.90691C16.6143 8.89978 16.636 8.89419 16.6575 8.88789V10.096H16.1918C15.4818 10.096 14.9041 10.6736 14.9041 11.3837C14.9041 12.0937 15.4818 12.6713 16.1918 12.6713H17.9452C18.1722 12.6713 18.3562 12.4873 18.3562 12.2604C18.3562 12.0334 18.1722 11.8494 17.9452 11.8494H17.4795V10.507V8.84559C17.5158 8.85233 17.552 8.85967 17.588 8.86866L21.5604 9.86181C21.5076 10.0682 21.4794 10.2843 21.4794 10.507C21.4794 11.9421 22.647 13.1097 24.0821 13.1097C25.4965 13.1097 26.6502 11.9754 26.6833 10.5688L26.7397 10.6439V11.822C26.7397 11.931 26.783 12.0355 26.8601 12.1126L27.2984 12.551C27.3786 12.6312 27.4838 12.6713 27.589 12.6713C27.6941 12.6713 27.7993 12.6312 27.8796 12.551C28.0401 12.3904 28.0401 12.1302 27.8796 11.9698ZM9.15069 2.17814C9.15069 1.92132 9.35962 1.71239 9.61644 1.71239H13.4834L12.4413 6.22806C12.3922 6.44061 12.2056 6.5891 11.9875 6.5891H11.3425V3.05485C11.3425 2.82789 11.1585 2.64389 10.9315 2.64389C10.7045 2.64389 10.5205 2.82789 10.5205 3.05485V6.5891H9.15069V2.17814ZM6.9589 4.36992C6.9589 4.35485 6.97118 4.34252 6.9863 4.34252H8.32877V6.5891H6.9863C6.97118 6.5891 6.9589 6.57677 6.9589 6.5617V5.68499V4.36992ZM1.26027 6.12335C1.26027 6.10828 1.27255 6.09595 1.28767 6.09595H6.13699V6.5617C6.13699 7.03003 6.51797 7.41102 6.9863 7.41102H8.73973H11.8356V7.87282L11.7415 7.90417H1.26027V6.12335ZM9.03595 8.72609C8.92597 8.84307 8.82679 8.97019 8.73973 9.10592C8.65266 8.97019 8.55348 8.84307 8.44351 8.72609H9.03595ZM0.821918 8.92691V8.72609H4.65238C4.32351 9.07595 4.09003 9.51622 3.99414 10.0055L1.18663 9.38159C0.971891 9.33387 0.821918 9.14691 0.821918 8.92691ZM6.54795 12.2877C5.56603 12.2877 4.76712 11.4889 4.76712 10.5069C4.76712 9.52493 5.56603 8.72609 6.54795 8.72609C7.52986 8.72609 8.32877 9.52493 8.32877 10.5069C8.32877 11.4889 7.52986 12.2877 6.54795 12.2877ZM10.9315 12.2877C9.94959 12.2877 9.15069 11.4889 9.15069 10.5069C9.15069 9.52493 9.94959 8.72609 10.9315 8.72609C11.9134 8.72609 12.7123 9.52493 12.7123 10.5069C12.7123 11.4889 11.9134 12.2877 10.9315 12.2877ZM16.6575 11.8494H16.1918C15.935 11.8494 15.726 11.6404 15.726 11.3836C15.726 11.1268 15.935 10.9179 16.1918 10.9179H16.6575V11.8494ZM17.7873 8.07124C17.3063 7.95102 16.8033 7.9703 16.333 8.12713L13.1702 9.18143C13.0201 8.92893 12.8287 8.70395 12.6051 8.51573C12.6123 8.50296 12.6189 8.48981 12.6247 8.47617L16.5929 7.15343C16.9149 7.04608 17.2589 7.03293 17.588 7.11518L22.601 8.36844C22.3208 8.56313 22.0808 8.81134 21.8953 9.09819L17.7873 8.07124ZM24.0822 12.2877C23.1003 12.2877 22.3014 11.4889 22.3014 10.5069C22.3014 10.2384 22.3615 9.98367 22.4684 9.75507C22.4707 9.75036 22.4728 9.74543 22.475 9.74055C22.7619 9.14115 23.3745 8.72609 24.0822 8.72609C25.0641 8.72609 25.863 9.52493 25.863 10.5069C25.863 11.4889 25.0641 12.2877 24.0822 12.2877Z" fill="#415560"/>
</svg>
