<svg width="30" height="24" viewBox="0 0 30 24" fill="none" xmlns="http://www.w3.org/2000/svg">
<path d="M28.6204 16.0215H27.5048C26.7263 14.659 25.3376 13.7894 23.775 13.6842L23.4341 12.6614C23.7214 12.4035 23.8943 12.031 23.8943 11.6339V11.0141C23.8943 10.4361 23.5293 9.91504 22.9862 9.71755L19.6985 8.52207C19.2759 8.36837 18.8038 8.43066 18.4355 8.68863C18.3859 8.72338 18.3392 8.76131 18.2952 8.8017L17.9711 8.47757L18.5991 7.84957C18.771 7.67761 18.771 7.3988 18.5991 7.2269C18.4271 7.05495 18.1483 7.05495 17.9764 7.2269L16.0977 9.10557C15.9258 9.27753 15.9258 9.55634 16.0977 9.72823C16.1837 9.81418 16.2964 9.85722 16.4091 9.85722C16.5217 9.85722 16.6344 9.81424 16.7204 9.72823L17.3484 9.10023L17.8632 9.61499C17.8531 9.68197 17.8474 9.7499 17.8474 9.81865V14.1135C17.8474 14.1861 17.865 14.2547 17.8961 14.3151L17.7258 14.3937C17.4156 14.5369 17.0711 14.6126 16.7294 14.6126H14.9706V11.7652C14.9706 11.0045 14.3517 10.3856 13.591 10.3856H11.4532L11.2133 7.98583V3.75148H18.7573C19.5181 3.75148 20.137 3.13258 20.137 2.37184C20.137 1.61109 19.5181 0.992188 18.7573 0.992188H10.3033C9.54258 0.992188 8.92368 1.61109 8.92368 2.37184L8.92386 2.92152C8.92397 3.12125 8.92409 3.26109 8.92386 3.29649C8.92274 3.32919 8.92532 3.36242 8.93184 3.39565C8.97223 3.60236 9.15335 3.75148 9.36399 3.75148H10.3327V7.65911L4.83423 8.95287C3.35513 9.3009 2.17697 10.4248 1.75949 11.8858L0.557554 16.0926C0.230313 16.2307 0 16.5547 0 16.9315V18.015C0 18.3922 0.237299 18.7346 0.590489 18.8671L4.04307 20.1618C4.07448 20.1736 4.10636 20.1811 4.1383 20.1854C4.85489 21.8439 6.50612 23.0078 8.42466 23.0078C10.6869 23.0078 12.5777 21.3898 13.0023 19.2505H16.908V19.2799C16.908 20.0406 17.5269 20.6595 18.2877 20.6595H19.4032C20.2347 22.1147 21.7622 23.0078 23.454 23.0078C25.3855 23.0078 27.1192 21.8114 27.8099 20.0179L28.7055 19.8686C29.4314 19.7476 30 19.0764 30 18.3405V17.4012C30 16.6404 29.3811 16.0215 28.6204 16.0215ZM9.80431 2.37184C9.80431 2.09667 10.0282 1.87281 10.3033 1.87281H18.7573C19.0325 1.87281 19.2564 2.09667 19.2564 2.37184C19.2564 2.647 19.0325 2.87086 18.7573 2.87086H9.80448L9.80431 2.37184ZM26.4492 16.0215H20.4595C21.169 15.1032 22.2643 14.5542 23.4528 14.5538C23.4532 14.5538 23.4535 14.5539 23.454 14.5539C23.4544 14.5539 23.4547 14.5538 23.4551 14.5538C24.6485 14.5542 25.7409 15.1023 26.4492 16.0215ZM18.9407 9.40986C19.0266 9.34968 19.1251 9.31892 19.2254 9.31892C19.2829 9.31892 19.341 9.32908 19.3976 9.34962L22.6852 10.5451C22.8817 10.6166 23.0137 10.805 23.0137 11.0141V11.6339C23.0137 11.8278 22.8999 12.0057 22.7238 12.087L18.728 13.9312V9.81865C18.728 9.65356 18.8055 9.50455 18.9407 9.40986ZM13.591 11.2662C13.8662 11.2662 14.09 11.49 14.09 11.7652V14.5841C14.0203 14.5596 13.9562 14.5202 13.9024 14.4664C13.8929 14.4569 13.883 14.4479 13.8726 14.4392L12.2517 13.0908C11.8726 12.7054 11.6345 12.1979 11.5807 11.6597L11.5414 11.2661H13.591V11.2662ZM0.899648 18.0425C0.888258 18.0383 0.880626 18.0273 0.880626 18.015V16.9315C0.880626 16.9154 0.893601 16.9025 0.909628 16.9022C0.909804 16.9022 0.910039 16.9023 0.910215 16.9023C0.910685 16.9023 0.911155 16.9022 0.911624 16.9022H3.98513C3.83789 17.3555 3.75734 17.8387 3.75734 18.3405C3.75734 18.6133 3.78223 18.8803 3.82732 19.1404L0.899648 18.0425ZM8.42466 22.1272C6.33669 22.1272 4.63796 20.4285 4.63796 18.3405C4.63796 16.2526 6.33669 14.5538 8.42466 14.5538C9.85521 14.5538 11.1028 15.3514 11.7467 16.525C11.7606 16.621 11.8049 16.7071 11.8701 16.7726C12.0886 17.2507 12.2114 17.7814 12.2114 18.3405C12.2114 20.4285 10.5126 22.1272 8.42466 22.1272ZM13.0912 18.3699C13.0913 18.3601 13.092 18.3504 13.092 18.3405C13.092 17.8387 13.0114 17.3555 12.8642 16.9022H15.9393C16.1825 16.9022 16.3796 16.705 16.3796 16.4619C16.3796 16.2187 16.1825 16.0215 15.9393 16.0215H12.4725C11.6663 14.6198 10.1544 13.6732 8.42466 13.6732C6.68213 13.6732 5.16059 14.6337 4.35898 16.0525C4.30896 16.0328 4.25466 16.0215 4.19765 16.0215H1.49372L2.60624 12.1277C2.93613 10.9731 3.86712 10.0851 5.03589 9.81007L10.3848 8.55148L10.7044 11.7474C10.779 12.4937 11.1122 13.1968 11.6425 13.7272C11.652 13.7367 11.662 13.7457 11.6723 13.7543L13.2953 15.1045C13.554 15.3553 13.8939 15.4932 14.2552 15.4932H16.7294C17.1976 15.4932 17.6697 15.3894 18.0948 15.1933L22.6491 13.0913L22.8559 13.7117C21.4115 13.8961 20.1355 14.7422 19.4032 16.0215H18.2877C17.5269 16.0215 16.908 16.6404 16.908 17.4012V18.3699H13.0912ZM23.454 22.1272C22.2602 22.1272 21.1674 21.579 20.4588 20.6595H22.9843C23.5224 20.6595 24.3919 20.5875 24.9226 20.4991L26.7567 20.1934C26.095 21.3711 24.837 22.1272 23.454 22.1272ZM29.1194 18.3405C29.1194 18.6422 28.8584 18.9504 28.5608 18.9999L24.7779 19.6304C24.2951 19.7109 23.4738 19.7789 22.9843 19.7789H18.2877C18.0125 19.7789 17.7887 19.555 17.7887 19.2799V17.4012C17.7887 17.126 18.0125 16.9022 18.2877 16.9022H27.2399C27.2406 16.9022 27.2413 16.9023 27.242 16.9023C27.2428 16.9023 27.2437 16.9022 27.2445 16.9022H28.6204C28.8955 16.9022 29.1194 17.126 29.1194 17.4012V18.3405Z" fill="#415560"/>
<path d="M10.1339 17.4438C9.89839 17.5045 9.75672 17.7446 9.81743 17.9801C9.8476 18.097 9.86287 18.2183 9.86287 18.3405C9.86287 19.1336 9.2176 19.7789 8.42451 19.7789C7.63142 19.7789 6.98615 19.1336 6.98615 18.3405C6.98615 17.5474 7.63142 16.9022 8.42451 16.9022C8.54668 16.9022 8.6678 16.9174 8.78457 16.9475C9.01993 17.0081 9.26011 16.8664 9.32075 16.6309C9.3814 16.3954 9.23962 16.1553 9.00414 16.0947C8.81569 16.0461 8.62066 16.0215 8.42445 16.0215C7.14578 16.0215 6.10547 17.0619 6.10547 18.3405C6.10547 19.6192 7.14578 20.6595 8.42445 20.6595C9.70312 20.6595 10.7434 19.6192 10.7434 18.3405C10.7434 18.1442 10.7188 17.9489 10.6701 17.7603C10.6095 17.5248 10.3692 17.3831 10.1339 17.4438Z" fill="#415560"/>
<path d="M23.454 17.9002C23.3383 17.9002 23.2244 17.9472 23.1428 18.0294C23.0606 18.111 23.0137 18.2249 23.0137 18.3405C23.0137 18.4568 23.0606 18.5701 23.1428 18.6517C23.2244 18.7339 23.3383 18.7808 23.454 18.7808C23.5702 18.7808 23.6835 18.7339 23.7651 18.6517C23.8473 18.5701 23.8943 18.4568 23.8943 18.3405C23.8943 18.2249 23.8473 18.111 23.7651 18.0294C23.6835 17.9472 23.5696 17.9002 23.454 17.9002Z" fill="#415560"/>
</svg>
