<svg width="32" height="12" viewBox="0 0 32 12" fill="none" xmlns="http://www.w3.org/2000/svg">
<path d="M4.47748 9.53818C4.35411 9.53818 4.23263 9.58827 4.14558 9.67594C4.05791 9.76299 4.00781 9.88448 4.00781 10.0078C4.00781 10.1312 4.05791 10.2527 4.14558 10.3397C4.23263 10.4274 4.35411 10.4775 4.47748 10.4775C4.60084 10.4775 4.72233 10.4274 4.80938 10.3397C4.89705 10.2527 4.94715 10.1312 4.94715 10.0078C4.94715 9.88448 4.89705 9.76299 4.80938 9.67594C4.72233 9.58827 4.60084 9.53818 4.47748 9.53818Z" fill="#415560"/>
<path d="M7.48334 9.53818C7.35997 9.53818 7.23849 9.58827 7.15144 9.67594C7.06377 9.76299 7.01367 9.88448 7.01367 10.0078C7.01367 10.1312 7.06377 10.2527 7.15144 10.3397C7.23849 10.4274 7.35997 10.4775 7.48334 10.4775C7.60733 10.4775 7.72819 10.4274 7.81524 10.3397C7.90291 10.2527 7.953 10.1312 7.953 10.0078C7.953 9.88448 7.90291 9.76299 7.81524 9.67594C7.72819 9.58827 7.6067 9.53818 7.48334 9.53818Z" fill="#415560"/>
<path d="M17.0019 9.53818C16.8779 9.53818 16.757 9.58827 16.67 9.67594C16.5823 9.76299 16.5322 9.88385 16.5322 10.0078C16.5322 10.1312 16.5823 10.2527 16.67 10.3397C16.757 10.4274 16.8785 10.4775 17.0019 10.4775C17.1253 10.4775 17.2467 10.4274 17.3338 10.3397C17.4215 10.2527 17.4716 10.1312 17.4716 10.0078C17.4716 9.88448 17.4215 9.76299 17.3338 9.67594C17.2467 9.58827 17.1259 9.53818 17.0019 9.53818Z" fill="#415560"/>
<path d="M20.0078 9.53818C19.8844 9.53818 19.7629 9.58827 19.6759 9.67594C19.5882 9.76299 19.5381 9.88448 19.5381 10.0078C19.5381 10.1318 19.5882 10.2527 19.6759 10.3397C19.7629 10.4274 19.8844 10.4775 20.0078 10.4775C20.1311 10.4775 20.2526 10.4274 20.3396 10.3397C20.4273 10.2527 20.4774 10.1312 20.4774 10.0078C20.4774 9.88448 20.4273 9.76299 20.3396 9.67594C20.2526 9.58827 20.1311 9.53818 20.0078 9.53818Z" fill="#415560"/>
<path d="M31.4634 1.4336L29.7364 0.570106C29.6312 0.517504 29.512 0.507609 29.4016 0.538043C29.3615 0.526959 29.3195 0.520509 29.2759 0.520509H7.21483C6.94255 0.212846 6.5464 0.0195312 6.11337 0.0195312H3.97651C3.71713 0.0195312 3.50684 0.229817 3.50684 0.489198V2.02344H0.970644C0.435412 2.02344 0 2.45885 0 2.99409V3.99604C0 4.53127 0.435412 4.96669 0.970644 4.96669H2.50489V5.99995C2.50489 6.25933 2.71517 6.46962 2.97455 6.46962H4.5088V7.03322H1.9726C1.43737 7.03322 1.00195 7.46863 1.00195 8.00386V8.59508C1.00195 9.04082 1.30862 9.42971 1.73752 9.53686L2.51309 9.83325C2.50802 9.8908 2.50495 9.94891 2.50495 10.0078C2.50495 11.0955 3.38986 11.9804 4.47755 11.9804C5.07916 11.9804 5.61834 11.7093 5.98048 11.2833C6.34263 11.7093 6.8818 11.9804 7.48341 11.9804C8.40928 11.9804 9.18774 11.3391 9.39909 10.4774H10.0195V10.5088C10.0195 11.044 10.455 11.4794 10.9902 11.4794H13.4951C14.0303 11.4794 14.4657 11.044 14.4657 10.5088V10.4774H14.998C15.0276 10.4774 15.0563 10.4744 15.0844 10.4692C15.2927 11.335 16.0731 11.9804 17.0019 11.9804C17.6035 11.9804 18.1427 11.7093 18.5049 11.2833C18.867 11.7093 19.4062 11.9804 20.0078 11.9804C20.9337 11.9804 21.7121 11.3391 21.9235 10.4774H26.5205C27.0557 10.4774 27.4911 10.042 27.4911 9.5068V7.50289C27.4911 7.48278 27.4894 7.46312 27.487 7.44377C27.4864 7.43889 27.4856 7.43413 27.4848 7.42937C27.4822 7.4129 27.4788 7.39674 27.4745 7.38083C27.4739 7.37858 27.4737 7.3762 27.4731 7.37395L26.6787 4.59377C26.4992 3.96536 25.9173 3.52644 25.2637 3.52644H22.5127C22.2533 3.52644 22.043 3.73672 22.043 3.9961V4.52839H21.4629C21.4279 4.33627 21.3362 4.1593 21.1951 4.01827L20.8409 3.66402C20.6574 3.4806 20.36 3.4806 20.1767 3.66402C19.9933 3.84744 19.9933 4.14477 20.1767 4.32819L20.3769 4.52839H15.499C14.9638 4.52839 14.5283 4.96381 14.5283 5.49904V7.03328H7.45204V6.46968H7.92171C8.21522 6.46968 8.45399 6.2309 8.45399 5.93739V5.32063L14.5842 2.96284H29.0971C29.1722 3.21596 29.3482 3.43019 29.5932 3.55268L31.0606 4.28636V5.49904C31.0606 5.75842 31.2709 5.9687 31.5303 5.9687C31.7896 5.9687 31.9999 5.75842 31.9999 5.49904V4.00625C32.0001 3.99974 32.0001 3.99322 31.9999 3.98665V2.3018C31.9999 1.93176 31.7943 1.59911 31.4634 1.4336ZM7.67598 2.02351L7.59544 1.45991H29.0567V2.02351H7.67598ZM4.44618 0.958928H6.11337C6.37657 0.958928 6.60307 1.15544 6.64033 1.41594L6.94186 3.52644H4.44618V0.958928ZM0.939333 3.9961V2.99415C0.939333 2.97693 0.95336 2.96284 0.970644 2.96284H3.50684V3.52644H3.03718C2.75425 3.52644 2.5228 3.7485 2.50645 4.02742H0.970644C0.95336 4.02742 0.939333 4.01333 0.939333 3.9961ZM4.47749 11.0411C3.90775 11.0411 3.44422 10.5776 3.44422 10.0078C3.44422 9.4381 3.90775 8.97457 4.47749 8.97457C5.04722 8.97457 5.51075 9.4381 5.51075 10.0078C5.51075 10.5776 5.04722 11.0411 4.47749 11.0411ZM7.48335 11.0411C6.91361 11.0411 6.45008 10.5776 6.45008 10.0078C6.45008 9.4381 6.91361 8.97457 7.48335 8.97457C8.05309 8.97457 8.51662 9.4381 8.51662 10.0078C8.51662 10.5776 8.05309 11.0411 7.48335 11.0411ZM13.5264 10.5088C13.5264 10.5249 13.5112 10.5401 13.4951 10.5401H10.9902C10.9741 10.5401 10.9589 10.5249 10.9589 10.5088V9.50686C10.9589 9.49077 10.9741 9.47555 10.9902 9.47555H13.4951C13.5112 9.47555 13.5264 9.49077 13.5264 9.50686V10.5088ZM17.0019 11.0411C16.4322 11.0411 15.9687 10.5776 15.9687 10.0078C15.9687 9.4381 16.4322 8.97457 17.0019 8.97457C17.5717 8.97457 18.0352 9.4381 18.0352 10.0078C18.0352 10.5776 17.5717 11.0411 17.0019 11.0411ZM20.0078 11.0411C19.4381 11.0411 18.9745 10.5776 18.9745 10.0078C18.9745 9.4381 19.4381 8.97457 20.0078 8.97457C20.5775 8.97457 21.0411 9.4381 21.0411 10.0078C21.0411 10.5776 20.5775 11.0411 20.0078 11.0411ZM21.9235 9.53817C21.7122 8.67655 20.9337 8.03524 20.0078 8.03524C19.4062 8.03524 18.867 8.30626 18.5049 8.73228C18.1427 8.30626 17.6035 8.03524 17.0019 8.03524C16.0731 8.03524 15.2927 8.68068 15.0844 9.54644C15.0563 9.54124 15.0276 9.53817 14.998 9.53817H14.4657V9.50686C14.4657 8.97163 14.0303 8.53621 13.4951 8.53621H10.9902C10.455 8.53621 10.0195 8.97163 10.0195 9.50686V9.53817H9.39903C9.18774 8.67655 8.40922 8.03524 7.48335 8.03524C6.88174 8.03524 6.34256 8.30626 5.98042 8.73228C5.61827 8.30626 5.0791 8.03524 4.47749 8.03524C3.78138 8.03524 3.16881 8.39801 2.81762 8.94407L2.04205 8.64768C2.0175 8.63835 1.99226 8.63096 1.96646 8.62583C1.95187 8.62295 1.94129 8.60998 1.94129 8.59514V8.00393C1.94129 7.98671 1.95531 7.97262 1.9726 7.97262H22.043V9.53817H21.9235ZM25.7755 4.85184L26.3988 7.03328H25.0176C24.7241 7.03328 24.4853 6.7945 24.4853 6.50099V4.46577H25.2637C25.5001 4.46577 25.7106 4.62452 25.7755 4.85184ZM22.9823 4.46577H23.5459V6.50099C23.5459 7.31245 24.2061 7.97262 25.0176 7.97262H26.5518V9.50686C26.5518 9.52408 26.5378 9.53817 26.5205 9.53817H22.9823V4.46577ZM22.043 7.03328H21.4794V5.46773H22.043V7.03328ZM15.4677 5.49904C15.4677 5.48182 15.4817 5.46773 15.499 5.46773H20.5401V7.03328H15.4677V5.49904ZM6.51271 7.03328H5.44813V6.46968H6.51271V7.03328ZM7.51466 5.53035H3.44422V4.46577H7.48141C7.48185 4.46577 7.48229 4.46583 7.48272 4.46583C7.48304 4.46583 7.48329 4.46577 7.4836 4.46577H7.51466V5.53035ZM8.45399 4.31422V4.05873C8.45399 3.76522 8.21522 3.52644 7.92171 3.52644H7.89071L7.81018 2.96284H11.9675L8.45399 4.31422ZM31.0606 3.23612L30.0133 2.71247C30.0027 2.70715 29.996 2.69638 29.996 2.68448V1.75016L31.0433 2.27381C31.054 2.27913 31.0606 2.2899 31.0606 2.3018V3.23612Z" fill="#415560"/>
</svg>
