<svg width="30" height="27" viewBox="0 0 30 27" fill="none" xmlns="http://www.w3.org/2000/svg">
<g filter="url(#filter0_d)">
<path d="M5.60731 20.953C5.49165 20.953 5.37776 21 5.29615 21.0822C5.21396 21.1638 5.16699 21.2777 5.16699 21.3933C5.16699 21.509 5.21396 21.6229 5.29615 21.7045C5.37776 21.7867 5.49165 21.8336 5.60731 21.8336C5.72296 21.8336 5.83686 21.7867 5.91846 21.7045C6.00065 21.6229 6.04762 21.509 6.04762 21.3933C6.04762 21.2777 6.00065 21.1638 5.91846 21.0822C5.83686 21 5.72296 20.953 5.60731 20.953Z" fill="#415560"/>
<path d="M19.386 21.0822C19.3038 21.1638 19.2568 21.2777 19.2568 21.3933C19.2568 21.509 19.3038 21.6229 19.386 21.7045C19.4676 21.7867 19.5815 21.8336 19.6971 21.8336C19.8128 21.8336 19.9267 21.7867 20.0083 21.7045C20.0905 21.6229 20.1375 21.509 20.1375 21.3933C20.1375 21.2777 20.0905 21.1638 20.0083 21.0822C19.9267 21 19.8128 20.953 19.6971 20.953C19.5815 20.953 19.4676 21 19.386 21.0822Z" fill="#415560"/>
<path d="M18.2875 20.953H7.01551C6.77234 20.953 6.5752 21.1501 6.5752 21.3933C6.5752 21.6365 6.77234 21.8336 7.01551 21.8336H18.2875C18.5307 21.8336 18.7278 21.6365 18.7278 21.3933C18.7278 21.1501 18.5307 20.953 18.2875 20.953Z" fill="#415560"/>
<path d="M29.5597 20.4833H29.0607V8.21329H29.5597C29.8029 8.21329 30 8.01615 30 7.77298C30 7.52981 29.8029 7.33267 29.5597 7.33267H27.6517V1.19764C27.6517 0.954467 27.4545 0.757324 27.2113 0.757324C26.9682 0.757324 26.771 0.954467 26.771 1.19764V7.77298V12.499H25.7575C25.7143 12.2681 25.5828 12.0599 25.3876 11.9221C25.1463 11.7519 24.836 11.7093 24.5579 11.8084L19.1196 13.7439C18.8557 12.7533 17.9512 12.0212 16.8787 12.0212H13.1213C12.6195 12.0212 12.2114 12.4294 12.2114 12.9312V13.4302H0.90998C0.4082 13.4302 0 13.8384 0 14.3402V19.5147C0 20.0164 0.4082 20.4246 0.90998 20.4246H4.03215C3.85808 20.7066 3.75734 21.0384 3.75734 21.3933C3.75734 22.413 4.58695 23.2426 5.60665 23.2426H19.6967C20.7164 23.2426 21.546 22.413 21.546 21.3933C21.546 20.3736 20.7164 19.544 19.6967 19.544H19.1977V16.5373L24.8924 14.5034V16.227C24.8924 16.9877 25.5113 17.6066 26.272 17.6066H26.771V20.9237V22.3327C26.771 22.5758 26.9682 22.773 27.2113 22.773C27.4545 22.773 27.6517 22.5758 27.6517 22.3327V21.364H29.5597C29.8029 21.364 30 21.1668 30 20.9237C30 20.6805 29.8029 20.4833 29.5597 20.4833ZM18.317 14.3402V17.9916L16.9532 17.6019C16.339 17.4265 15.91 16.8577 15.91 16.2189V12.9019H16.8787C17.6718 12.9019 18.317 13.5471 18.317 14.3402ZM0.880626 19.5147V15.7199H1.84932C2.09249 15.7199 2.28963 15.5227 2.28963 15.2796C2.28963 15.0364 2.09249 14.8392 1.84932 14.8392H0.880626V14.3402C0.880626 14.324 0.893777 14.3109 0.90998 14.3109H12.6517C12.9268 14.3109 13.1507 14.5347 13.1507 14.8099V14.8392H3.72798C3.48481 14.8392 3.28767 15.0364 3.28767 15.2796C3.28767 15.5227 3.48481 15.7199 3.72798 15.7199H13.1507V19.544H5.60665H0.90998C0.893777 19.544 0.880626 19.5309 0.880626 19.5147ZM20.6654 21.3933C20.6654 21.9275 20.2308 22.362 19.6967 22.362H5.60665C5.07252 22.362 4.63796 21.9275 4.63796 21.3933C4.63796 20.8592 5.07252 20.4246 5.60665 20.4246H13.591H19.6967C20.2308 20.4246 20.6654 20.8592 20.6654 21.3933ZM14.0313 19.544V14.8099C14.0313 14.2031 13.6374 13.6869 13.092 13.5027V12.9312C13.092 12.915 13.1051 12.9019 13.1213 12.9019H15.0294V16.2189C15.0294 17.2487 15.721 18.1657 16.7112 18.4486L18.317 18.9074V19.544H14.0313ZM24.8729 13.5753L19.1977 15.6022V14.6509L24.8532 12.638C24.8578 12.6364 24.8675 12.6329 24.88 12.6417C24.8924 12.6505 24.8924 12.6607 24.8924 12.6657V12.9393V13.5477C24.8924 13.56 24.8846 13.5711 24.8729 13.5753ZM26.272 16.726C25.9968 16.726 25.773 16.5022 25.773 16.227V13.5477V13.3796H26.771V16.726H26.272ZM27.6517 8.21329H28.18V20.4833H27.6517V8.21329Z" fill="#415560"/>
</g>
<defs>
<filter id="filter0_d" x="-4" y="0.757324" width="38" height="30.4853" filterUnits="userSpaceOnUse" color-interpolation-filters="sRGB">
<feFlood flood-opacity="0" result="BackgroundImageFix"/>
<feColorMatrix in="SourceAlpha" type="matrix" values="0 0 0 0 0 0 0 0 0 0 0 0 0 0 0 0 0 0 127 0" result="hardAlpha"/>
<feOffset dy="4"/>
<feGaussianBlur stdDeviation="2"/>
<feComposite in2="hardAlpha" operator="out"/>
<feColorMatrix type="matrix" values="0 0 0 0 0 0 0 0 0 0 0 0 0 0 0 0 0 0 0.25 0"/>
<feBlend mode="normal" in2="BackgroundImageFix" result="effect1_dropShadow"/>
<feBlend mode="normal" in="SourceGraphic" in2="effect1_dropShadow" result="shape"/>
</filter>
</defs>
</svg>
