<svg width="26" height="26" viewBox="0 0 26 26" fill="none" xmlns="http://www.w3.org/2000/svg">
<g clip-path="url(#clip0)">
<path d="M7.58333 0C7.29602 0 7.02047 0.114137 6.8173 0.317301C6.61414 0.520465 6.5 0.796016 6.5 1.08333V3.25C6.5 4.11195 6.15759 4.9386 5.5481 5.5481C4.9386 6.15759 4.11195 6.5 3.25 6.5H1.08333C0.796016 6.5 0.520465 6.61414 0.317301 6.8173C0.114137 7.02047 0 7.29602 0 7.58333C0 7.87065 0.114137 8.1462 0.317301 8.34937C0.520465 8.55253 0.796016 8.66667 1.08333 8.66667H3.25C4.68606 8.66495 6.06281 8.09371 7.07826 7.07826C8.09371 6.06281 8.66495 4.68606 8.66667 3.25V1.08333C8.66667 0.796016 8.55253 0.520465 8.34937 0.317301C8.1462 0.114137 7.87065 0 7.58333 0V0Z" fill="#E36931"/>
<path d="M24.9154 17.3334H22.7487C21.3126 17.3351 19.9359 17.9063 18.9204 18.9218C17.905 19.9372 17.3338 21.314 17.332 22.75V24.9167C17.332 25.204 17.4462 25.4796 17.6493 25.6827C17.8525 25.8859 18.128 26 18.4154 26C18.7027 26 18.9782 25.8859 19.1814 25.6827C19.3846 25.4796 19.4987 25.204 19.4987 24.9167V22.75C19.4987 21.8881 19.8411 21.0614 20.4506 20.4519C21.0601 19.8424 21.8867 19.5 22.7487 19.5H24.9154C25.2027 19.5 25.4782 19.3859 25.6814 19.1827C25.8846 18.9796 25.9987 18.704 25.9987 18.4167C25.9987 18.1294 25.8846 17.8538 25.6814 17.6507C25.4782 17.4475 25.2027 17.3334 24.9154 17.3334Z" fill="#E36931"/>
<path d="M22.7487 8.66667H24.9154C25.2027 8.66667 25.4782 8.55253 25.6814 8.34937C25.8846 8.1462 25.9987 7.87065 25.9987 7.58333C25.9987 7.29602 25.8846 7.02047 25.6814 6.8173C25.4782 6.61414 25.2027 6.5 24.9154 6.5H22.7487C21.8867 6.5 21.0601 6.15759 20.4506 5.5481C19.8411 4.9386 19.4987 4.11195 19.4987 3.25V1.08333C19.4987 0.796016 19.3846 0.520465 19.1814 0.317301C18.9782 0.114137 18.7027 0 18.4154 0C18.128 0 17.8525 0.114137 17.6493 0.317301C17.4462 0.520465 17.332 0.796016 17.332 1.08333V3.25C17.3338 4.68606 17.905 6.06281 18.9204 7.07826C19.9359 8.09371 21.3126 8.66495 22.7487 8.66667Z" fill="#E36931"/>
<path d="M3.25 17.3334H1.08333C0.796016 17.3334 0.520465 17.4475 0.317301 17.6507C0.114137 17.8538 0 18.1294 0 18.4167C0 18.704 0.114137 18.9796 0.317301 19.1827C0.520465 19.3859 0.796016 19.5 1.08333 19.5H3.25C4.11195 19.5 4.9386 19.8424 5.5481 20.4519C6.15759 21.0614 6.5 21.8881 6.5 22.75V24.9167C6.5 25.204 6.61414 25.4796 6.8173 25.6827C7.02047 25.8859 7.29602 26 7.58333 26C7.87065 26 8.1462 25.8859 8.34937 25.6827C8.55253 25.4796 8.66667 25.204 8.66667 24.9167V22.75C8.66495 21.314 8.09371 19.9372 7.07826 18.9218C6.06281 17.9063 4.68606 17.3351 3.25 17.3334Z" fill="#E36931"/>
</g>
<defs>
<clipPath id="clip0">
<rect width="26" height="26" fill="white"/>
</clipPath>
</defs>
</svg>
