<svg width="12" height="7" viewBox="0 0 12 7" fill="none" xmlns="http://www.w3.org/2000/svg">
<path d="M-0.00204372 0.828438C-0.00242423 0.762635 0.0101881 0.697404 0.0350704 0.636485C0.0599527 0.575566 0.0966158 0.520158 0.142957 0.473438C0.189439 0.426574 0.244739 0.389377 0.305668 0.363992C0.366598 0.338608 0.431951 0.325539 0.497956 0.325539C0.563962 0.325539 0.629315 0.338608 0.690245 0.363992C0.751174 0.389377 0.806475 0.426574 0.852956 0.473438L4.93796 4.55844C5.21921 4.83934 5.60045 4.99712 5.99796 4.99712C6.39546 4.99712 6.7767 4.83934 7.05796 4.55844L11.143 0.473438C11.2371 0.379286 11.3648 0.326392 11.498 0.326392C11.6311 0.326392 11.7588 0.379286 11.853 0.473438C11.9471 0.56759 12 0.695287 12 0.828438C12 0.961589 11.9471 1.08929 11.853 1.18344L7.76796 5.26844C7.53573 5.50126 7.25985 5.68597 6.95612 5.812C6.6524 5.93803 6.32679 6.00291 5.99796 6.00291C5.66912 6.00291 5.34351 5.93803 5.03979 5.812C4.73606 5.68597 4.46018 5.50126 4.22796 5.26844L0.142957 1.18344C0.0966158 1.13672 0.0599527 1.08131 0.0350704 1.02039C0.0101881 0.959473 -0.00242423 0.894241 -0.00204372 0.828438Z" fill="#5E6065"/>
</svg>
