<svg width="12" height="7" viewBox="0 0 12 7" fill="none" xmlns="http://www.w3.org/2000/svg">
<path d="M12.0001 5.50001C12.0005 5.56581 11.9879 5.63104 11.963 5.69196C11.9381 5.75288 11.9014 5.80829 11.8551 5.85501C11.8086 5.90187 11.7533 5.93907 11.6924 5.96445C11.6314 5.98984 11.5661 6.00291 11.5001 6.00291C11.4341 6.00291 11.3687 5.98984 11.3078 5.96445C11.2469 5.93907 11.1916 5.90187 11.1451 5.85501L7.06009 1.77001C6.77884 1.48911 6.39759 1.33133 6.00009 1.33133C5.60259 1.33133 5.22134 1.48911 4.94009 1.77001L0.855093 5.85501C0.760941 5.94916 0.633243 6.00205 0.500093 6.00205C0.366942 6.00205 0.239244 5.94916 0.145093 5.85501C0.0509408 5.76086 -0.00195312 5.63316 -0.00195312 5.50001C-0.00195312 5.36686 0.0509408 5.23916 0.145093 5.14501L4.23009 1.06001C4.46232 0.82719 4.7382 0.642476 5.04192 0.516444C5.34565 0.390411 5.67126 0.325537 6.00009 0.325537C6.32893 0.325537 6.65453 0.390411 6.95826 0.516444C7.26198 0.642476 7.53786 0.82719 7.77009 1.06001L11.8551 5.14501C11.9014 5.19173 11.9381 5.24714 11.963 5.30805C11.9879 5.36897 12.0005 5.4342 12.0001 5.50001Z" fill="#5E6065"/>
</svg>
