<svg width="32" height="32" viewBox="0 0 32 32" fill="none" xmlns="http://www.w3.org/2000/svg">
<g clip-path="url(#clip0)">
<path d="M32.0022 30.6663C32.0022 31.0199 31.8617 31.3591 31.6116 31.6091C31.3616 31.8591 31.0224 31.9996 30.6688 31.9996H1.33548C0.98186 31.9996 0.642722 31.8591 0.392673 31.6091C0.142625 31.3591 0.00214872 31.0199 0.00214872 30.6663C0.00214872 30.3127 0.142625 29.9735 0.392673 29.7235C0.642722 29.4734 0.98186 29.333 1.33548 29.333H30.6688C31.0224 29.333 31.3616 29.4734 31.6116 29.7235C31.8617 29.9735 32.0022 30.3127 32.0022 30.6663ZM0.390149 11.4023C0.102845 10.8694 -0.0302584 10.267 0.00577595 9.66263C0.0418103 9.05829 0.245557 8.47595 0.594149 7.98096C1.16383 7.14512 1.92674 6.45904 2.81815 5.98096L12.8195 0.775631C13.8025 0.264472 14.8942 -0.00239563 16.0021 -0.00239563C17.1101 -0.00239563 18.2018 0.264472 19.1848 0.775631L29.1848 5.98496C30.0762 6.46304 30.8391 7.14912 31.4088 7.98496C31.7574 8.47995 31.9612 9.06229 31.9972 9.66663C32.0332 10.271 31.9001 10.8734 31.6128 11.4063C31.3035 11.9914 30.8396 12.4804 30.2716 12.8201C29.7036 13.1599 29.0533 13.3372 28.3915 13.333H28.0021V23.9996H29.3355C29.6891 23.9996 30.0282 24.1401 30.2783 24.3901C30.5283 24.6402 30.6688 24.9793 30.6688 25.333C30.6688 25.6866 30.5283 26.0257 30.2783 26.2758C30.0282 26.5258 29.6891 26.6663 29.3355 26.6663H2.66882C2.31519 26.6663 1.97605 26.5258 1.72601 26.2758C1.47596 26.0257 1.33548 25.6866 1.33548 25.333C1.33548 24.9793 1.47596 24.6402 1.72601 24.3901C1.97605 24.1401 2.31519 23.9996 2.66882 23.9996H4.00215V13.333H3.61282C2.95036 13.3371 2.29949 13.1592 1.7312 12.8188C1.16291 12.4783 0.699027 11.9883 0.390149 11.4023ZM6.66882 23.9996H10.6688V13.333H6.66882V23.9996ZM13.3355 13.333V23.9996H18.6688V13.333H13.3355ZM25.3355 13.333H21.3355V23.9996H25.3355V13.333ZM2.75282 10.1663C2.83647 10.3205 2.96097 10.4488 3.11266 10.537C3.26435 10.6252 3.43739 10.6699 3.61282 10.6663H28.3915C28.5669 10.6699 28.74 10.6252 28.8916 10.537C29.0433 10.4488 29.1678 10.3205 29.2515 10.1663C29.3124 10.0644 29.3419 9.94673 29.3362 9.82813C29.3305 9.70952 29.2899 9.59524 29.2195 9.49963C28.8964 9.01951 28.4624 8.62435 27.9542 8.34763L17.9541 3.1383C17.3515 2.82553 16.6825 2.66226 16.0035 2.66226C15.3245 2.66226 14.6555 2.82553 14.0528 3.1383L4.05282 8.34763C3.54479 8.62524 3.11085 9.02077 2.78748 9.50096C2.71693 9.59617 2.67602 9.71007 2.66985 9.8284C2.66369 9.94674 2.69254 10.0643 2.75282 10.1663Z" fill="#E36931"/>
</g>
<defs>
<clipPath id="clip0">
<rect width="32" height="32" fill="white"/>
</clipPath>
</defs>
</svg>
