<svg width="14" height="14" viewBox="0 0 14 14" fill="none" xmlns="http://www.w3.org/2000/svg">
<g clip-path="url(#clip0)">
<path d="M12.95 1.26175C12.6221 0.987541 12.2378 0.788893 11.8244 0.679912C11.4111 0.57093 10.9788 0.554288 10.5583 0.631166L8.32883 1.036C7.8141 1.13052 7.34609 1.39535 7 1.78792C6.65301 1.39467 6.18366 1.12979 5.66767 1.036L3.44167 0.631166C3.02118 0.55422 2.58891 0.570645 2.17547 0.679277C1.76203 0.787908 1.37752 0.986091 1.04916 1.2598C0.720806 1.5335 0.456625 1.87604 0.275323 2.26316C0.0940206 2.65028 2.84739e-05 3.07253 0 3.5L0 9.79592C3.35159e-05 10.4789 0.239736 11.1402 0.677328 11.6645C1.11492 12.1889 1.72265 12.5431 2.39458 12.6653L6.06142 13.3321C6.68206 13.4449 7.31794 13.4449 7.93858 13.3321L11.6083 12.6653C12.2797 12.5425 12.8868 12.188 13.3238 11.6637C13.7608 11.1394 14.0001 10.4785 14 9.79592V3.5C14.0003 3.07268 13.9063 2.65055 13.7248 2.26368C13.5433 1.87681 13.2788 1.53471 12.95 1.26175ZM6.41667 12.208C6.36767 12.201 6.31867 12.1928 6.26967 12.1841L2.60342 11.5179C2.2002 11.4446 1.83551 11.232 1.57295 10.9173C1.31039 10.6026 1.1666 10.2058 1.16667 9.79592V3.5C1.16667 3.03587 1.35104 2.59075 1.67923 2.26256C2.00742 1.93437 2.45254 1.75 2.91667 1.75C3.0223 1.75025 3.12771 1.75982 3.23167 1.77858L5.46 2.18692C5.72811 2.23598 5.97058 2.37736 6.14533 2.58652C6.32008 2.79569 6.41608 3.05944 6.41667 3.332V12.208ZM12.8333 9.79592C12.8334 10.2058 12.6896 10.6026 12.427 10.9173C12.1645 11.232 11.7998 11.4446 11.3966 11.5179L7.73033 12.1841C7.68133 12.1928 7.63233 12.201 7.58333 12.208V3.332C7.58329 3.05877 7.67915 2.7942 7.85419 2.5844C8.02923 2.37461 8.27235 2.23291 8.54117 2.184L10.7701 1.77567C11.0225 1.72974 11.2819 1.73988 11.53 1.80536C11.7781 1.87085 12.0087 1.99008 12.2056 2.1546C12.4024 2.31913 12.5607 2.52493 12.6692 2.75743C12.7777 2.98993 12.8337 3.24344 12.8333 3.5V9.79592Z" fill="#E36931"/>
</g>
<defs>
<clipPath id="clip0">
<rect width="14" height="14" fill="white"/>
</clipPath>
</defs>
</svg>
