<svg width="32" height="32" viewBox="0 0 32 32" fill="none" xmlns="http://www.w3.org/2000/svg">
<g clip-path="url(#clip0)">
<path d="M25.3333 26.6667H6.66667C4.89921 26.6646 3.20474 25.9615 1.95496 24.7117C0.705176 23.4619 0.00211714 21.7675 0 20L0 12C0.00211714 10.2325 0.705176 8.53809 1.95496 7.2883C3.20474 6.03852 4.89921 5.33546 6.66667 5.33334H25.3333C27.1008 5.33546 28.7953 6.03852 30.045 7.2883C31.2948 8.53809 31.9979 10.2325 32 12V20C31.9979 21.7675 31.2948 23.4619 30.045 24.7117C28.7953 25.9615 27.1008 26.6646 25.3333 26.6667ZM6.66667 8.00001C5.6058 8.00001 4.58839 8.42144 3.83824 9.17158C3.08809 9.92173 2.66667 10.9391 2.66667 12V20C2.66667 21.0609 3.08809 22.0783 3.83824 22.8284C4.58839 23.5786 5.6058 24 6.66667 24H25.3333C26.3942 24 27.4116 23.5786 28.1618 22.8284C28.9119 22.0783 29.3333 21.0609 29.3333 20V12C29.3333 10.9391 28.9119 9.92173 28.1618 9.17158C27.4116 8.42144 26.3942 8.00001 25.3333 8.00001H6.66667ZM16 21.3333C14.9452 21.3333 13.914 21.0205 13.037 20.4345C12.1599 19.8485 11.4763 19.0155 11.0726 18.041C10.669 17.0664 10.5634 15.9941 10.7691 14.9595C10.9749 13.925 11.4829 12.9747 12.2288 12.2288C12.9746 11.4829 13.925 10.9749 14.9595 10.7692C15.9941 10.5634 17.0664 10.669 18.041 11.0726C19.0155 11.4763 19.8485 12.1599 20.4345 13.037C21.0205 13.914 21.3333 14.9452 21.3333 16C21.3333 17.4145 20.7714 18.771 19.7712 19.7712C18.771 20.7714 17.4145 21.3333 16 21.3333ZM16 13.3333C15.4726 13.3333 14.957 13.4897 14.5185 13.7828C14.0799 14.0758 13.7382 14.4922 13.5363 14.9795C13.3345 15.4668 13.2817 16.003 13.3846 16.5202C13.4875 17.0375 13.7414 17.5127 14.1144 17.8856C14.4873 18.2586 14.9625 18.5125 15.4798 18.6154C15.997 18.7183 16.5332 18.6655 17.0205 18.4637C17.5078 18.2619 17.9242 17.9201 18.2173 17.4815C18.5103 17.043 18.6667 16.5274 18.6667 16C18.6667 15.2928 18.3857 14.6145 17.8856 14.1144C17.3855 13.6143 16.7072 13.3333 16 13.3333ZM6.66667 10.6667C6.40296 10.6667 6.14517 10.7449 5.92591 10.8914C5.70664 11.0379 5.53574 11.2461 5.43483 11.4898C5.33391 11.7334 5.30751 12.0015 5.35895 12.2601C5.4104 12.5188 5.53739 12.7563 5.72386 12.9428C5.91033 13.1293 6.14791 13.2563 6.40655 13.3077C6.66519 13.3592 6.93328 13.3328 7.17691 13.2318C7.42055 13.1309 7.62878 12.96 7.77529 12.7408C7.9218 12.5215 8 12.2637 8 12C8 11.6464 7.85952 11.3072 7.60948 11.0572C7.35943 10.8072 7.02029 10.6667 6.66667 10.6667ZM24 12C24 12.2637 24.0782 12.5215 24.2247 12.7408C24.3712 12.96 24.5795 13.1309 24.8231 13.2318C25.0667 13.3328 25.3348 13.3592 25.5935 13.3077C25.8521 13.2563 26.0897 13.1293 26.2761 12.9428C26.4626 12.7563 26.5896 12.5188 26.641 12.2601C26.6925 12.0015 26.6661 11.7334 26.5652 11.4898C26.4643 11.2461 26.2934 11.0379 26.0741 10.8914C25.8548 10.7449 25.597 10.6667 25.3333 10.6667C24.9797 10.6667 24.6406 10.8072 24.3905 11.0572C24.1405 11.3072 24 11.6464 24 12ZM6.66667 18.6667C6.40296 18.6667 6.14517 18.7449 5.92591 18.8914C5.70664 19.0379 5.53574 19.2461 5.43483 19.4898C5.33391 19.7334 5.30751 20.0015 5.35895 20.2601C5.4104 20.5188 5.53739 20.7563 5.72386 20.9428C5.91033 21.1293 6.14791 21.2563 6.40655 21.3077C6.66519 21.3592 6.93328 21.3328 7.17691 21.2318C7.42055 21.1309 7.62878 20.96 7.77529 20.7408C7.9218 20.5215 8 20.2637 8 20C8 19.6464 7.85952 19.3072 7.60948 19.0572C7.35943 18.8071 7.02029 18.6667 6.66667 18.6667ZM24 20C24 20.2637 24.0782 20.5215 24.2247 20.7408C24.3712 20.96 24.5795 21.1309 24.8231 21.2318C25.0667 21.3328 25.3348 21.3592 25.5935 21.3077C25.8521 21.2563 26.0897 21.1293 26.2761 20.9428C26.4626 20.7563 26.5896 20.5188 26.641 20.2601C26.6925 20.0015 26.6661 19.7334 26.5652 19.4898C26.4643 19.2461 26.2934 19.0379 26.0741 18.8914C25.8548 18.7449 25.597 18.6667 25.3333 18.6667C24.9797 18.6667 24.6406 18.8071 24.3905 19.0572C24.1405 19.3072 24 19.6464 24 20Z" fill="#E36931"/>
</g>
<defs>
<clipPath id="clip0">
<rect width="32" height="32" fill="white"/>
</clipPath>
</defs>
</svg>
