<svg width="8" height="6" viewBox="0 0 8 6" fill="none" xmlns="http://www.w3.org/2000/svg">
<path d="M2.889 4.6329L1.25608 2.99999C1.17795 2.92188 1.07198 2.878 0.961499 2.878C0.851014 2.878 0.745053 2.92188 0.666916 2.99999C0.588803 3.07813 0.544922 3.18409 0.544922 3.29457C0.544922 3.40506 0.588803 3.51102 0.666916 3.58916L2.29983 5.22207C2.37722 5.29949 2.4691 5.3609 2.57023 5.4028C2.67135 5.4447 2.77974 5.46627 2.88921 5.46627C2.99867 5.46627 3.10706 5.4447 3.20819 5.4028C3.30932 5.3609 3.4012 5.29949 3.47858 5.22207L7.33358 1.36707C7.4117 1.28894 7.45558 1.18298 7.45558 1.07249C7.45558 0.962007 7.4117 0.856045 7.33358 0.777908C7.25545 0.699796 7.14948 0.655914 7.039 0.655914C6.92851 0.655914 6.82255 0.699796 6.74442 0.777908L2.889 4.6329Z" fill="white"/>
</svg>
