<svg width="12" height="12" viewBox="0 0 12 12" fill="none" xmlns="http://www.w3.org/2000/svg">
<path d="M6.5 11.5L6.5 6.5L11.5 6.5C11.6326 6.5 11.7598 6.44732 11.8536 6.35355C11.9473 6.25979 12 6.13261 12 6V6C12 5.86739 11.9473 5.74021 11.8536 5.64645C11.7598 5.55268 11.6326 5.5 11.5 5.5L6.5 5.5L6.5 0.5C6.5 0.367392 6.44732 0.240215 6.35355 0.146446C6.25979 0.0526782 6.13261 -2.56472e-07 6 -2.62268e-07V-2.62268e-07C5.86739 -2.68065e-07 5.74021 0.0526782 5.64645 0.146446C5.55268 0.240215 5.5 0.367391 5.5 0.5L5.5 5.5L0.5 5.5C0.367391 5.5 0.240214 5.55268 0.146446 5.64645C0.0526779 5.74021 -2.56472e-07 5.86739 -2.62268e-07 6C-2.68065e-07 6.13261 0.0526778 6.25978 0.146446 6.35355C0.240214 6.44732 0.367391 6.5 0.5 6.5L5.5 6.5L5.5 11.5C5.5 11.6326 5.55268 11.7598 5.64645 11.8536C5.74021 11.9473 5.86739 12 6 12C6.13261 12 6.25978 11.9473 6.35355 11.8536C6.44732 11.7598 6.5 11.6326 6.5 11.5Z" fill="#E36931"/>
</svg>
