<svg width="24" height="24" viewBox="0 0 24 24" fill="none" xmlns="http://www.w3.org/2000/svg">
<path d="M22.7034 6.46506C22.4441 5.50114 21.6841 4.7413 20.7203 4.48175C18.9596 4 11.9167 4 11.9167 4C11.9167 4 4.87407 4 3.11337 4.46349C2.16814 4.72276 1.38962 5.50128 1.13034 6.46506C0.666992 8.22562 0.666992 11.8768 0.666992 11.8768C0.666992 11.8768 0.666992 15.5464 1.13034 17.2885C1.38989 18.2523 2.1496 19.0121 3.11351 19.2717C4.89261 19.7536 11.917 19.7536 11.917 19.7536C11.917 19.7536 18.9596 19.7536 20.7203 19.2901C21.6842 19.0307 22.4441 18.2708 22.7036 17.3071C23.1669 15.5464 23.1669 11.8953 23.1669 11.8953C23.1669 11.8953 23.1854 8.22562 22.7034 6.46506V6.46506ZM9.67441 15.2499V8.50371L15.5309 11.8768L9.67441 15.2499Z" fill="#E36931"/>
</svg>
