<svg width="68" height="66" viewBox="0 0 68 66" fill="none" xmlns="http://www.w3.org/2000/svg">
<path d="M27.0215 26.1748C29.3268 29.0537 31.431 31.8217 32.4456 33.1374C32.8276 33.6544 32.7592 33.8886 32.7686 34.4774C32.7927 36.0895 32.8128 37.9966 32.7378 39.1349C34.1786 38.8493 35.8378 38.898 37.6244 38.9914V38.1035L34.326 38.2186C34.326 38.2186 34.6289 30.4682 34.6785 29.652C34.1531 28.9306 31.4833 25.6239 28.2988 21.6485L22.1094 27.8626L22.0732 31.145L27.0215 26.1748Z" fill="#E36931"/>
<path d="M28.7438 44.725C28.658 44.299 28.6238 43.8641 28.642 43.4297C28.2282 43.8178 27.8989 44.2886 27.675 44.8122C27.4512 45.3359 27.3378 45.9008 27.3419 46.4711H29.9045C29.3081 45.9581 28.8604 45.3003 28.7438 44.725Z" fill="#E36931"/>
<path d="M48.1152 38.7437L48.1675 39.2554C50.2275 39.4747 52.5086 39.6235 53.7511 39.7521C53.7229 39.4205 53.6894 39.0659 53.6546 38.695C51.6187 38.7031 49.237 38.7113 48.1152 38.7437Z" fill="#E36931"/>
<path d="M42.1659 12.2671L62.9923 31.9192L63.0634 46.4711H67.2933L67.2035 27.8626L44.6722 6.61205L35.5449 15.1475C35.5449 15.1475 36.2714 15.8391 37.298 16.8204L42.1659 12.2671Z" fill="#E36931"/>
<path d="M10.0228 65.0525C10.0049 65.3206 9.88592 65.5715 9.69041 65.7537C9.4819 65.9263 9.21714 66.0141 8.9479 66C8.79529 66.0059 8.64339 65.9762 8.50395 65.9133C8.36451 65.8504 8.24126 65.756 8.14374 65.6373C7.93022 65.3602 7.82269 65.0147 7.84084 64.6641V64.3934C7.83362 64.1521 7.87939 63.9122 7.97487 63.6909C8.06049 63.4994 8.20041 63.3378 8.37695 63.2266C8.55724 63.1159 8.7651 63.0596 8.97605 63.0642C9.24076 63.0516 9.50004 63.1428 9.69979 63.3186C9.88984 63.5049 10.0049 63.7556 10.0228 64.0225H9.6502C9.63826 63.8375 9.564 63.6622 9.43978 63.5257C9.31301 63.4143 9.1478 63.3579 8.98007 63.3687C8.87176 63.3646 8.76409 63.3871 8.66628 63.4343C8.56847 63.4814 8.48345 63.5518 8.4185 63.6394C8.26976 63.8635 8.19817 64.1309 8.21478 64.4001V64.6776C8.20133 64.9391 8.26878 65.1983 8.40777 65.4194C8.46723 65.5065 8.54757 65.5771 8.64132 65.6244C8.73506 65.6717 8.83916 65.6943 8.94388 65.6901C9.11502 65.7016 9.28463 65.6512 9.42236 65.5479C9.55399 65.4153 9.63473 65.2397 9.6502 65.0525H10.0228Z" fill="#1C2E38"/>
<path d="M12.4335 63.408H11.5262V65.9607H11.1509V63.408H10.2422V63.0993H12.4335V63.408Z" fill="#1C2E38"/>
<path d="M13.2275 64.8414V65.9608H12.8535V63.0994H13.8989C14.1632 63.0838 14.4235 63.1693 14.628 63.3389C14.7161 63.4184 14.7858 63.5164 14.8322 63.6262C14.8785 63.7359 14.9003 63.8546 14.8961 63.9738C14.9035 64.0933 14.8842 64.2131 14.8397 64.3241C14.7952 64.4352 14.7265 64.5347 14.6388 64.6153C14.4279 64.7787 14.1654 64.859 13.9003 64.8414H13.2275ZM13.2275 64.5328H13.8976C14.0631 64.5441 14.2269 64.4929 14.3573 64.3893C14.4113 64.3372 14.4536 64.274 14.4811 64.2039C14.5086 64.1338 14.5208 64.0585 14.5168 63.9832C14.5196 63.9081 14.5069 63.8331 14.4794 63.7632C14.4519 63.6933 14.4104 63.6299 14.3573 63.5772C14.2367 63.4694 14.0799 63.4123 13.919 63.4174H13.2275V64.5328Z" fill="#1C2E38"/>
<path d="M17.5473 64.6235C17.555 64.8749 17.5093 65.125 17.4133 65.3571C17.3295 65.5533 17.1894 65.7197 17.0112 65.8349C16.8787 65.9217 16.7293 65.9786 16.573 66.0017C16.4167 66.0247 16.2574 66.0133 16.1059 65.9683C15.9544 65.9233 15.8143 65.8457 15.6953 65.7409C15.5762 65.6361 15.4811 65.5066 15.4163 65.3611C15.3168 65.1368 15.2666 64.8935 15.2688 64.6478V64.4421C15.2644 64.1915 15.3129 63.9428 15.4109 63.7125C15.4925 63.5149 15.6314 63.3468 15.8094 63.2303C15.9874 63.1139 16.1961 63.0545 16.4081 63.0601C16.6199 63.0561 16.8284 63.1139 17.0085 63.2266C17.1874 63.3428 17.3274 63.5107 17.4106 63.7085C17.5064 63.9406 17.5521 64.1907 17.5446 64.4421L17.5473 64.6235ZM17.176 64.438C17.1939 64.1624 17.1229 63.8884 16.9737 63.657C16.9083 63.5688 16.8226 63.4981 16.7241 63.4509C16.6255 63.4037 16.517 63.3815 16.4081 63.3863C16.3003 63.3819 16.1931 63.4043 16.0959 63.4515C15.9987 63.4987 15.9144 63.5693 15.8505 63.657C15.7017 63.8793 15.6284 64.1443 15.6414 64.4123V64.6235C15.6264 64.897 15.6982 65.1683 15.8465 65.3977C15.9125 65.4843 15.9971 65.5548 16.0939 65.6038C16.1907 65.6528 16.2972 65.679 16.4055 65.6806C16.5138 65.6822 16.621 65.659 16.7191 65.6128C16.8173 65.5666 16.9038 65.4986 16.9723 65.4139C17.118 65.1874 17.1893 64.9203 17.176 64.6505V64.438Z" fill="#1C2E38"/>
<path d="M19.8956 63.0993H20.2682V65.9607H19.8956V63.7518L18.4964 65.9607H18.1211V63.0993H18.4964V65.3043L19.8956 63.0993Z" fill="#1C2E38"/>
<path d="M22.8505 63.408H21.9405V65.9607H21.5679V63.408H20.6592V63.0993H22.8505V63.408Z" fill="#1C2E38"/>
<path d="M24.8731 64.6383H23.6454V65.6467H25.0715V65.9553H23.2715V63.0993H25.0514V63.408H23.6454V64.3297H24.8731V64.6383Z" fill="#1C2E38"/>
<path d="M27.6792 63.0994V65.9608H27.3052V63.408H26.2893L26.2384 64.5436C26.2324 64.8327 26.1938 65.1202 26.1231 65.4004C26.0827 65.564 25.9939 65.7113 25.8684 65.8227C25.7384 65.9171 25.5808 65.9648 25.4208 65.9581H25.2988V65.6467H25.3766C25.481 65.6449 25.5807 65.6028 25.6553 65.529C25.7322 65.4317 25.7829 65.3161 25.8028 65.1933C25.8451 64.9596 25.8693 64.7229 25.8751 64.4854L25.9328 63.098L27.6792 63.0994Z" fill="#1C2E38"/>
<path d="M28.7187 64.2675H29.4236C29.6743 64.2557 29.9205 64.3377 30.1152 64.4976C30.1987 64.5743 30.2643 64.6686 30.3074 64.7739C30.3505 64.8792 30.37 64.9928 30.3645 65.1067C30.3695 65.2217 30.3497 65.3365 30.3064 65.4431C30.2632 65.5497 30.1975 65.6455 30.1139 65.7239C29.9223 65.8854 29.6784 65.9698 29.429 65.9607H28.3447V63.0993H28.7187V64.2675ZM28.7187 64.5761V65.6589H29.4022C29.5603 65.669 29.716 65.6155 29.8351 65.51C29.8877 65.4572 29.9287 65.3936 29.9553 65.3237C29.9818 65.2537 29.9934 65.1788 29.9892 65.1039C29.9928 65.0333 29.9813 64.9627 29.9557 64.8969C29.93 64.831 29.8907 64.7715 29.8405 64.7223C29.7223 64.6222 29.571 64.5709 29.4169 64.5788L28.7187 64.5761Z" fill="#1C2E38"/>
<path d="M33.0357 65.9607H32.6591V64.6383H31.229V65.9607H30.8564V63.0993H31.229V64.3297H32.6578V63.0993H33.0344L33.0357 65.9607Z" fill="#1C2E38"/>
<path d="M35.2976 65.2122H34.1101L33.8421 65.9607H33.4561L34.5377 63.0993H34.8647L35.949 65.9607H35.5656L35.2976 65.2122ZM34.2254 64.9036H35.1877L34.7052 63.565L34.2254 64.9036Z" fill="#1C2E38"/>
<path d="M37.8157 65.9607V64.8468H37.1616L36.5759 65.9607H36.1738L36.8319 64.7426C36.6977 64.6921 36.5785 64.6079 36.4856 64.4979C36.3926 64.3879 36.3289 64.2558 36.3006 64.1141C36.2723 63.9723 36.2803 63.8256 36.3238 63.6879C36.3672 63.5501 36.4448 63.4258 36.5491 63.3267C36.7603 63.164 37.0224 63.0833 37.2876 63.0994H38.1976V65.9607H37.8157ZM36.6603 63.9616C36.6567 64.0384 36.669 64.1152 36.6965 64.187C36.7239 64.2588 36.766 64.324 36.8198 64.3785C36.8804 64.4335 36.9511 64.476 37.0279 64.5034C37.1047 64.5308 37.1861 64.5426 37.2675 64.5382H37.8157V63.408H37.2796C37.1119 63.3961 36.9459 63.4482 36.8145 63.5541C36.761 63.6067 36.7195 63.6703 36.6929 63.7407C36.6663 63.811 36.6552 63.8864 36.6603 63.9616Z" fill="#1C2E38"/>
<path d="M40.5934 64.6762H40.2489V65.9607H39.875V63.0993H40.2489V64.3609H40.5411L41.5316 63.0993H41.9966L40.915 64.4867L42.0757 65.9607H41.6187L40.5934 64.6762Z" fill="#1C2E38"/>
<path d="M44.5372 64.6235C44.5442 64.8748 44.4985 65.1248 44.4032 65.3571C44.3193 65.5532 44.1793 65.7196 44.0011 65.8349C43.8218 65.948 43.6134 66.0055 43.402 66C43.192 66.0061 42.985 65.9485 42.8077 65.8346C42.6305 65.7208 42.4911 65.5558 42.4076 65.3611C42.3075 65.1371 42.2572 64.8936 42.2601 64.6478V64.4421C42.2551 64.1914 42.3035 63.9426 42.4022 63.7125C42.4837 63.5151 42.6224 63.3471 42.8001 63.2307C42.9779 63.1143 43.1863 63.0548 43.398 63.0601C43.6099 63.0557 43.8185 63.1135 43.9985 63.2266C44.1772 63.343 44.3173 63.5108 44.4005 63.7085C44.4957 63.9408 44.5414 64.1907 44.5346 64.4421L44.5372 64.6235ZM44.166 64.438C44.1831 64.1621 44.1111 63.8881 43.9609 63.657C43.8955 63.5686 43.8096 63.4977 43.7107 63.4506C43.6119 63.4034 43.5032 63.3813 43.394 63.3863C43.2862 63.3821 43.1791 63.4045 43.0819 63.4517C42.9847 63.4989 42.9004 63.5694 42.8364 63.657C42.6888 63.8798 42.6155 64.1445 42.6274 64.4123V64.6235C42.6123 64.897 42.6841 65.1683 42.8324 65.3977C42.8985 65.4843 42.983 65.5548 43.0799 65.6038C43.1767 65.6528 43.2832 65.679 43.3914 65.6806C43.4997 65.6822 43.6069 65.659 43.7051 65.6128C43.8032 65.5666 43.8898 65.4986 43.9582 65.4139C44.105 65.1878 44.1768 64.9205 44.1633 64.6505L44.166 64.438Z" fill="#1C2E38"/>
<path d="M45.5802 63.0993L46.5076 65.4342L47.4338 63.0993H47.9176V65.9607H47.5437V64.8468L47.5798 63.6435L46.6497 65.9607H46.3629L45.4354 63.6502L45.4716 64.8468V65.9607H45.0977V63.0993H45.5802Z" fill="#1C2E38"/>
<path d="M50.7415 65.9607H50.3662V63.408H48.9683V65.9607H48.5957V63.0993H50.7401L50.7415 65.9607Z" fill="#1C2E38"/>
<path d="M52.9847 65.2122H51.7986L51.5305 65.9607H51.1445L52.2261 63.0993H52.5532L53.6374 65.9607H53.2541L52.9847 65.2122ZM51.9125 64.9036H52.8748L52.3923 63.565L51.9125 64.9036Z" fill="#1C2E38"/>
<path d="M56.1981 65.9607H55.8228V64.6383H54.3941V65.9607H54.0215V63.0993H54.3941V64.3297H55.8228V63.0993H56.1981V65.9607Z" fill="#1C2E38"/>
<path d="M58.6488 63.0993H59.0214V65.9607H58.6488V63.7518L57.2522 65.9567H56.877V63.0993H57.2522V65.3043L58.6488 63.0993Z" fill="#1C2E38"/>
<path d="M61.1868 65.9607V64.8468H60.5327L59.947 65.9607H59.5449L60.203 64.7426C60.0688 64.6921 59.9496 64.6079 59.8566 64.4979C59.7637 64.3879 59.7 64.2558 59.6717 64.1141C59.6434 63.9723 59.6514 63.8256 59.6949 63.6879C59.7383 63.5501 59.8159 63.4258 59.9202 63.3267C60.1314 63.164 60.3935 63.0833 60.6587 63.0994H61.5593V65.9607H61.1868ZM60.0301 63.9616C60.0266 64.0385 60.0391 64.1154 60.0668 64.1872C60.0945 64.259 60.1368 64.3241 60.1909 64.3785C60.2515 64.4335 60.3222 64.476 60.399 64.5034C60.4758 64.5308 60.5572 64.5426 60.6386 64.5382H61.1868V63.408H60.6506C60.483 63.3961 60.317 63.4482 60.1856 63.5541C60.1319 63.6066 60.0903 63.6702 60.0634 63.7406C60.0366 63.8109 60.0252 63.8863 60.0301 63.9616Z" fill="#1C2E38"/>
<path d="M64.4872 60.6982L68 54.6465L63.5851 47.4781H34.9275H32.9653H4.30897L0 55.3314L4.14814 60.6982H64.4872Z" fill="#1C2E38"/>
<path d="M53.2727 40.2881C52.4284 40.1447 49.9127 39.8618 47.5015 39.6114V38.2578C49.5334 38.2077 56.0458 38.0453 56.3353 38.0304C56.6757 38.0128 56.8124 36.1842 56.3353 33.913C55.8581 31.6417 49.3659 31.4928 49.3525 31.3778C49.1219 26.505 48.9195 25.1217 47.0914 24.5735C45.7973 24.2138 44.4756 23.9638 43.1403 23.8264C42.0319 22.6718 29.7617 11.3142 29.7617 11.3142L17.2583 0C17.2583 0 15.7947 1.92067 15.4288 3.8224C14.7319 3.26339 14.0162 2.65835 14.0162 2.65835L8.92317 22.8085C8.20804 23.2794 7.5333 23.81 6.90606 24.3949C5.05246 26.0814 1.53961 28.8561 0.803803 31.9436C-0.142428 35.927 2.2848 39.6587 2.76864 40.2408C4.51769 42.3388 6.25335 42.8937 8.30798 43.09C10.2862 43.2795 12.5848 42.5039 13.4908 42.1574L16.8415 41.0745V41.1057L19.7606 40.1704L19.3103 39.1227L17.5143 39.5464C17.4178 39.384 17.3039 39.1985 17.1685 38.9874L18.9001 38.4324L18.4498 37.3848L16.4716 37.8504C16.3375 37.6122 16.1955 37.3618 16.0561 37.1033L18.0933 36.4563L17.643 35.4086L15.4503 35.927C15.327 35.6798 15.2041 35.428 15.0817 35.1718L17.3025 34.4611L16.8522 33.4135L14.5175 33.9644C14.4281 33.7587 14.3347 33.5525 14.2373 33.3458L16.6351 32.577L16.1848 31.5294L13.6986 32.1168C12.5593 29.4666 11.5541 26.8475 10.9899 25.318L18.8774 8.91983C21.3502 11.2263 32.6406 25.4114 35.5972 29.2365C35.5584 29.74 35.5182 30.2922 35.4632 30.9C35.2784 33.1471 35.2068 35.4023 35.2488 37.6569H38.2215V39.4232C36.455 39.3312 34.6483 39.3596 33.237 39.6642C30.3072 40.2963 28.7418 41.6728 29.239 44.139C29.4615 45.2394 30.9425 46.6511 32.2841 46.6511H50.8227C53.2995 46.6511 54.8074 46.2843 55.7817 45.3544C57.1475 44.0429 57.705 41.0394 53.2727 40.2881ZM12.298 41.1314C11.1963 40.5223 9.78094 39.7264 8.94059 39.1999C7.41536 38.2429 5.45588 36.0069 5.74538 33.4974C5.89415 32.2468 6.36325 31.1044 6.87657 30.1461C6.59512 31.6147 6.60852 33.3946 7.23711 35.4479C7.67805 36.8894 10.6092 39.6384 12.298 41.1314ZM9.53433 23.7235C9.53433 23.7235 9.52629 22.615 9.4901 22.5906L14.8512 4.80101L15.4315 5.1042L9.53433 23.7235ZM48.2038 27.439C48.3539 28.3107 48.3231 31.2654 48.2266 30.5291C48.1301 29.7928 47.8138 27.822 47.5015 27.577C46.8649 27.064 43.8346 26.5903 42.958 27.9655C42.4541 28.7587 41.662 34.6547 41.7102 33.5732C41.7585 32.4917 41.8081 30.1366 41.9528 28.2213C42.0976 26.3061 42.6685 26.2032 43.1684 26.1057C44.3479 25.8783 47.8674 25.4939 48.2038 27.439ZM30.1021 16.3778L17.6912 3.15104C17.6912 3.15104 21.1304 6.31427 30.728 15.808L30.1021 16.3778ZM37.3758 29.2893C37.3758 29.2893 37.5366 27.0153 38.0593 26.7717C38.582 26.528 39.3849 26.3656 39.8271 26.6499C40.2694 26.9341 40.512 27.1777 40.3096 28.3553C40.1823 29.1079 39.8271 31.3697 39.8271 31.3697C39.8271 31.3697 39.8178 28.8534 39.7481 28.1117C39.6676 27.259 39.0954 26.9747 38.4212 27.2183C37.747 27.462 37.3758 29.2852 37.3758 29.2852V29.2893ZM39.9571 41.0434C38.2148 41.0434 33.4139 41.1788 32.6661 43.274C32.3377 44.1945 32.579 44.9809 33.4139 45.5372C32.0026 44.8279 30.8259 43.584 31.63 42.2981C33.8656 38.7722 48.9651 40.6306 50.237 41.0394L39.9571 41.0434Z" fill="#1C2E38"/>
<path d="M9.72642 55.8484V58.316H7.94922V51.0447H10.8978C11.4127 51.0349 11.9234 51.1398 12.3936 51.352C12.8076 51.5361 13.1583 51.8402 13.4012 52.2257C13.644 52.6112 13.7682 53.0608 13.758 53.5176C13.7694 53.8422 13.7055 54.1649 13.5715 54.4601C13.4375 54.7553 13.2369 55.0147 12.986 55.2177C12.4713 55.6427 11.765 55.8548 10.867 55.8539L9.72642 55.8484ZM9.72642 54.4949H10.8911C11.176 54.5152 11.4577 54.4241 11.6779 54.2404C11.7706 54.1468 11.8426 54.0343 11.8888 53.9103C11.935 53.7864 11.9545 53.6539 11.9459 53.5217C11.9606 53.2247 11.8607 52.9336 11.6671 52.7096C11.5697 52.6065 11.4517 52.5255 11.3209 52.472C11.1901 52.4186 11.0495 52.3939 10.9085 52.3996H9.72642V54.4949Z" fill="white"/>
<path d="M19.2709 55.2245H16.4764V56.9624H19.7775V58.3159H14.6992V51.0447H19.7922V52.3983H16.4818V53.9318H19.2762L19.2709 55.2245Z" fill="white"/>
<path d="M25.4734 52.3983H22.2674V58.3159H20.4902V51.0447H25.4734V52.3983Z" fill="white"/>
<path d="M30.6082 51.0447H32.3854V58.3159H30.6082V53.7356L27.9598 58.32H26.1826V51.0447H27.9598V55.6305L30.6082 51.0447Z" fill="white"/>
<path d="M39.711 54.8306C39.723 55.4811 39.5853 56.1256 39.3089 56.7134C39.0612 57.2373 38.6658 57.6757 38.1723 57.9735C37.6633 58.2737 37.0823 58.4268 36.493 58.4161C35.908 58.4267 35.331 58.279 34.8216 57.9884C34.3341 57.7019 33.9393 57.2788 33.6851 56.7702C33.4052 56.2044 33.2589 55.5808 33.2576 54.9483V54.5423C33.2456 53.8909 33.3832 53.2455 33.6596 52.6568C33.907 52.1318 34.3036 51.6931 34.7989 51.3967C35.3119 51.1064 35.8902 50.954 36.4782 50.954C37.0663 50.954 37.6445 51.1064 38.1576 51.3967C38.65 51.6932 39.0467 52.1277 39.2995 52.6473C39.5802 53.2258 39.7217 53.863 39.7123 54.5071L39.711 54.8306ZM37.9029 54.526C37.9029 53.8042 37.781 53.2555 37.537 52.8801C37.4264 52.7013 37.271 52.5552 37.0865 52.4565C36.9019 52.3579 36.6949 52.3102 36.4863 52.3184C35.5928 52.3184 35.1219 52.9776 35.0736 54.2959V54.8306C35.0736 55.5425 35.1933 56.0903 35.4328 56.4738C35.5437 56.6582 35.7019 56.8089 35.8906 56.9099C36.0794 57.0109 36.2917 57.0585 36.505 57.0477C36.7121 57.0549 36.9175 57.0065 37.1 56.9073C37.2825 56.8082 37.4356 56.6618 37.5437 56.4833C37.7859 56.107 37.9087 55.5656 37.9123 54.859L37.9029 54.526Z" fill="white"/>
<path d="M46.7905 58.3159H45.0227V55.28H42.4051V58.3159H40.6279V51.0447H42.4051V53.9318H45.0227V51.0447H46.7905V58.3159Z" fill="white"/>
<path d="M54.5118 50.9405V52.2629H54.4354C53.7975 52.2629 53.2734 52.4136 52.8633 52.715C52.661 52.8633 52.4899 53.0507 52.3599 53.2663C52.2299 53.4819 52.1436 53.7215 52.106 53.9711C52.3004 53.7851 52.5294 53.64 52.7797 53.544C53.03 53.448 53.2967 53.4032 53.5642 53.4121C53.8532 53.4007 54.1409 53.457 54.4048 53.5765C54.6687 53.6961 54.9016 53.8756 55.0855 54.101C55.4652 54.5594 55.6546 55.1622 55.6537 55.9093C55.6576 56.3558 55.5428 56.7952 55.3213 57.1817C55.1032 57.5658 54.7822 57.8801 54.3952 58.0885C53.9902 58.3088 53.5364 58.4215 53.0764 58.4161C52.5863 58.4242 52.1026 58.3029 51.6731 58.0642C51.2627 57.8295 50.9284 57.4797 50.7108 57.0571C50.4742 56.5907 50.3528 56.0734 50.357 55.5493V54.8725C50.3457 54.1683 50.5136 53.4729 50.8448 52.8531C51.1671 52.2591 51.6513 51.771 52.2401 51.4467C52.8554 51.1044 53.548 50.9291 54.2505 50.9378L54.5118 50.9405ZM52.9718 54.7006C52.7718 54.6936 52.5743 54.7474 52.4049 54.8549C52.2607 54.9493 52.1437 55.0805 52.0658 55.2353V55.7388C52.0658 56.6574 52.3884 57.1167 53.0335 57.1167C53.1613 57.1169 53.2873 57.0858 53.4006 57.0259C53.5138 56.966 53.6109 56.8792 53.6835 56.7729C53.864 56.5228 53.9561 56.2186 53.9449 55.9093C53.9582 55.5962 53.8634 55.2881 53.6768 55.0377C53.5941 54.9292 53.487 54.8421 53.3645 54.7835C53.2419 54.725 53.1074 54.6965 52.9718 54.7006Z" fill="white"/>
<path d="M56.4966 54.7643L56.9469 51.0447H61.2505V52.3536H58.3288L58.1679 53.7978C58.319 53.7157 58.4798 53.6534 58.6464 53.6124C58.8354 53.5595 59.0306 53.5322 59.2267 53.5312C59.9585 53.5312 60.5214 53.7455 60.9155 54.1741C61.3095 54.6027 61.5061 55.2028 61.5052 55.9743C61.5109 56.4168 61.4018 56.8531 61.1889 57.2399C60.9836 57.612 60.6746 57.9151 60.3003 58.1115C59.881 58.3233 59.4166 58.4279 58.948 58.4161C58.4989 58.4186 58.0548 58.3221 57.6465 58.1332C57.2665 57.9664 56.9378 57.6994 56.695 57.3603C56.4665 57.0369 56.3476 56.6476 56.3559 56.2504H58.0674C58.0716 56.4865 58.164 56.7123 58.3261 56.8825C58.4069 56.9618 58.503 57.0234 58.6083 57.0637C58.7136 57.104 58.8261 57.122 58.9386 57.1167C59.5122 57.1167 59.799 56.6985 59.799 55.862C59.799 55.0877 59.4479 54.7006 58.7456 54.7006C58.3471 54.7006 58.05 54.827 57.8543 55.0796L56.4966 54.7643Z" fill="white"/>
</svg>
